<svg version="1" xmlns="http://www.w3.org/2000/svg" width="1301.333" height="1301.333" viewBox="0 0 976.000000 976.000000"><path d="M470 4.7c-25.8 2.5-50.2 9.6-69 20-8.2 4.6-242.5 138.2-257.9 147.1-21.6 12.5-33.8 22.4-48.3 39.2-24.9 28.9-41.8 64.1-48.4 100.5-2.2 11.7-2.4 22.8-3.4 185.3-.7 106.2-.7 151.2.1 158.5 4.5 42.5 28.6 90.4 61 121.2 15 14.2 12.7 12.8 91.4 58.5 25.9 15.1 82.1 47.8 125 72.8 42.9 25 80.9 46.8 84.5 48.4 21.8 10 43.2 14.7 71.5 15.5 26.9.8 43-1.1 66.2-7.7 15.6-4.5 27.2-10.1 59.3-28.7 32.2-18.6 149.5-86.5 206-119.1 19.5-11.3 38.8-22.8 42.9-25.6 9.1-6.3 27-23.2 35.3-33.5 18.5-22.9 33.2-51.6 40.5-78.9 5.7-21.5 5.4-13.2 6.4-184.2.5-87.2.6-162.3.3-167-2.3-34.1-18-73-42.1-104.3-10.6-13.8-29-31-41.8-39.2-13-8.4-273-159.3-280-162.6-16.6-7.8-40-14-60-15.9-10.2-.9-31.4-1.1-39.5-.3zm45.2 55.9c14.9 2.3 32.8 8.6 38.3 13.4 1.1.9 24.7 14.9 52.5 31s51 29.8 51.5 30.3c1.3 1.3 1.2 1.2-15.6-6.2-33.4-14.7-72.3-25-111.4-29.7-21.1-2.6-66-2.6-87.5 0-37.9 4.4-74.9 14.2-109.9 29-4.7 2-8.6 3.4-8.8 3.2-.2-.2 5.3-3.7 12.4-7.7 7-4 31.7-18.1 54.8-31.4 50.3-28.8 55.4-30.8 85-33.9 7.3-.7 28.3.3 38.7 2zm15.6 82.9c15.6 2.1 34.5 6 48.7 10 11.2 3.1 36.3 11.6 38.7 13.1 1.4.9-6.6 8.9-18.6 18.7-27.3 22.2-56.2 37-85.4 43.8-12.6 3-38.5 3.7-51.2 1.5-33.7-5.9-64-22.9-93.7-52.6-6.2-6.2-11.3-11.6-11.3-12 0-.9 22.4-8.8 35.5-12.5 18.6-5.3 47.2-10.3 68-11.9 11.5-.9 58.4.4 69.3 1.9zM757 192.9c73.4 42.7 73.3 42.6 85.7 57 18.8 21.9 32.1 49.4 35.8 73.7 1.7 11.3 2 46.5.8 110.5-.6 31.3-.9 37.1-1.5 28.4-7.6-114.6-66.6-221.3-160-289.9-6-4.3-10.8-8.1-10.8-8.3 0-.2.3-.2.8 0 .4.3 22.5 13.1 49.2 28.6zm-495-25.5c0 .2-4.4 3.6-9.7 7.7-79.9 60.7-133.2 146-150.8 241.4-1.4 7.6-2.8 14.1-3.1 14.4-1.3 1.2.7-104.2 2.1-111.4 5.7-30 25.9-65.1 49.2-85.7 6.9-6.1 11-8.9 29.3-19.4 8.5-4.8 30.6-17.5 49-28.1 34.4-19.8 34-19.5 34-18.9zm92.3 19.9c20.2 20.4 37.1 33.5 56.3 43.4 35.1 18.3 70.6 23.1 108.8 14.8 35.8-7.7 73.8-29.1 106.1-59.8 8.3-7.8 8.9-8.7 7.7-10.6-.7-1.2-.9-2.1-.5-2.1 1.3 0 27.2 13.9 36.1 19.4 8.3 5.1 30.3 20.4 32.6 22.7.6.5-2.8 4.8-9 11.2-5.4 5.6-13.1 13.7-17.1 17.9-16.4 17.5-57.5 44.1-88.3 57.2-36.2 15.3-66.8 21.9-102.5 21.9-23.2 0-39.8-2.1-61.2-7.8-48.9-12.9-98.7-42.6-137.5-82-8.7-8.7-15.8-16.2-15.8-16.5.1-.8 15.7-12.3 27.3-19.8 10.1-6.7 38.3-22.6 42.5-24.1.2-.1 6.7 6.3 14.5 14.2zm381.2 58.9c12.9 13.1 31.5 35.1 31.5 37.1 0 .5-1.7-.5-3.7-2.2-2.1-1.7-4-3.1-4.3-3.1-.4 0-6.9 6.2-14.6 13.7-27.5 27.2-56.8 49.8-90.4 69.7-12.3 7.3-41.9 22-42.7 21.2-.9-.8 4-12.7 11.8-28.6 19.2-39.2 43.6-73.4 81.1-113.3l12-12.7 2.7 1.9c1.5 1.1 9 8.4 16.6 16.3zm-477.8-15.5c.4 1 6.3 7.7 13.2 14.8 27.9 28.9 53.4 64.7 71.6 100.6 7.9 15.6 17 36.8 16.1 37.6-.8.8-29.6-13.8-43.1-21.8-31.1-18.5-63.2-43.3-92.4-71.5l-11.7-11.3-2.7 2.7c-5.3 5.3-2.5 1 7.5-11.5 10.2-12.7 37.7-41.3 39.8-41.3.6 0 1.4.8 1.7 1.7zm526.4 77.6c7.4 12.2 20.9 38 20.9 39.9 0 .6-.6.5-1.5-.2-1.3-1.1-3.5.7-14.3 11.6-20.7 20.8-33.5 38-44.1 59.2-12 23.9-17.2 45.4-17.2 71.3-.1 15.3 0 16.2 3.3 32.8 6.9 35.8 29.5 75.9 60.8 108 6.3 6.5 8 8.9 7.6 10.5-1.4 5.3-25 45.6-26.7 45.6-.4 0-5.3-4.8-11-10.8-45-46.6-73.4-99.1-83-153.7-3.3-18.7-3.3-52.2 0-70.7 6.9-39.1 21.9-73.2 49.4-111.8 5.3-7.3 14.6-18.1 26.2-30.1l18-18.6 2.1 2.4c1.1 1.3 5.4 7.9 9.5 14.6zm-442.4-11.2c36.2 22.2 78.3 36.8 118.2 41 16.1 1.7 50.3.6 65.1-2 36.6-6.4 70.3-18.6 101.4-36.5 4.4-2.5 8.3-4.6 8.8-4.6s-.9 2.6-3.1 5.8c-15.8 23.4-30 51.2-40.2 78.7l-4.7 13-11.4 3.8c-34.5 11.4-77.6 16.6-113.8 13.8-24.5-2-51.3-7.2-70.9-13.8l-8.3-2.9-4.8-12.9c-6.8-18.9-10.4-27.2-19-44-6.5-12.8-16.6-30.4-23.4-40.8-1-1.5-1.6-2.7-1.2-2.7.3 0 3.6 1.9 7.3 4.1zm-139.1 1c1.6 1.8 8.3 8.1 14.9 14.1 14 12.7 19.3 19.1 32 38.3 24.8 37.4 37.9 70.3 44.6 112 2 12.4 1.7 45.5-.5 60-6.8 44-28.1 88.9-61.1 129-8 9.6-31.4 34.5-32.5 34.5-1.1 0-15-22.5-20.2-32.6l-4.3-8.3 8.6-8.8c34.1-34.8 53.8-71.9 59-110.9 1.7-12.6.6-38.2-2.1-50.9-8.1-38-28.5-73.7-61.2-107-7.6-7.7-13.8-14.1-13.8-14.2 0-.1 2.9-6.4 6.5-14 7.3-15.4 24.3-44.3 26-44.3.6 0 2.4 1.4 4.1 3.1zM694 367.8c-14.6 26.4-25.2 56.8-29.5 84.7-2.2 14.2-3 42.6-1.6 56 4.2 39.2 16.2 75.4 36.6 110 3.1 5.3 5.5 9.8 5.3 10-.2.1-4.5-2.7-9.5-6.4-8.6-6.2-27.7-18.3-38.3-24.4-8.3-4.7-32.3-16.3-42.7-20.7l-10.2-4.3-1.6-5.5c-5-16.9-8.8-37-10.6-56-2.8-28.2 1.1-71.7 8.6-97.5l1.5-5.2 10.3-3.9c20.9-8.1 55.5-26.8 77.7-42 5.2-3.5 9.6-6.3 9.8-6.2.2.2-2.4 5.3-5.8 11.4zm-408.8-1.9c24.1 16.1 49.6 29.8 73.4 39.5l9.1 3.8 2.6 10.6c11.8 48.4 11.3 96.1-1.4 142.8l-3.1 11.1-9.2 3.7c-21.6 8.5-51 24.2-73.9 39.4-7 4.6-13 8.3-13.1 8.1-.2-.2 1.6-3.8 4.1-7.9 23.4-39.3 36.3-84.1 36.3-125.9 0-40.3-11.7-84.4-32.8-123.1-3.3-6-5.9-11-5.7-11 .2 0 6.3 4 13.7 8.9zm529.6 6.6c14.1 38.3 21.3 84.6 19.8 127.5-1.2 38.5-7.9 72.9-21 109.1-2.4 6.6-4.7 12.3-5.1 12.7-1.1 1-13.4-12.6-23.4-25.8-18.8-25-30.7-49.2-36.9-75.5-2.4-9.8-2.6-13.1-2.7-30 0-14.9.4-20.8 1.9-27.4 5.6-25.7 17.9-49.9 37.1-73.1 10.2-12.3 25.5-27.4 26.5-26.4.5.5 2.2 4.5 3.8 8.9zm-641.2 13.6c27.7 30.9 43.9 60.7 51 93.9 2.6 12 2.6 40.1.1 52-5.6 26-17.5 50.2-36.3 73.7C180 616.2 169.2 628 168 628c-1 0-9.8-22.2-13.4-33.8-18.8-60.3-21.1-124.6-6.6-185.7 2.4-10.4 9.4-33.5 10.7-35.7.8-1.5 5.2 2.4 14.9 13.3zm405.5 36.7c-2.6 11.1-5.2 30.9-6.3 47.4-1.8 26.2 1.1 59.7 7.2 85.6 1.1 4.7 1.9 8.7 1.7 8.9-.2.2-5.5-1-11.8-2.7-59.6-15.6-119-14.5-180.6 3.6l-2.1.6 1.8-7.4c6-23.4 8.4-47.7 7.7-78.1-.5-23.9-1.6-34-5.6-54.2-1-5-1.7-9.2-1.6-9.3.2-.2 6.8 1.2 14.7 3.1 25.9 6.4 37.2 8.2 62.8 9.7 33.2 1.9 70.7-2.1 104-11.3 4.7-1.3 8.7-2 8.8-1.5.2.5-.1 3-.7 5.6zm299 225.7c-2.9 29.4-19.3 62.4-42.6 85.9-10.3 10.4-14.9 13.5-47.5 32.3-12.9 7.4-32.5 18.7-43.5 25.1-11 6.4-22 12.6-24.5 14l-4.5 2.3 3.5-2.8c1.9-1.5 7.9-6.4 13.4-10.7 79.6-63.7 132-158.5 143.6-259.8 1.1-9.5 2.1-19.5 2.2-22.3.2-2.7.4 24.5.6 60.5.1 38-.2 69.7-.7 75.5zm-777.5-91.4c16.7 97.2 72.3 187.1 152.4 246.7 6.3 4.7 12 9 12.5 9.5 2.1 2-7.5-3.4-54-30.5-26.4-15.4-49.9-29.1-52.2-30.4-22.1-12.7-44.4-42.8-55.7-75.2-6.5-18.6-6.6-20.4-6.6-81 0-30 .3-54.3.6-53.9.3.3 1.7 7 3 14.8zm417.7 15.4c21.2 2.4 47.7 8.1 65.6 14.3l5.4 1.8 3.2 9c9.1 25.6 25.2 57.2 40.9 80.7 1.9 2.8 3.3 5.3 3.1 5.5-.2.2-5-2.4-10.7-5.8-35.3-20.9-72-33.7-111.8-39.1-14-1.9-46.9-1.6-61.5.5-40.3 5.8-80.2 20-114 40.5-3.7 2.3-7 4-7.2 3.7-.3-.2 3.1-5.8 7.4-12.3 7.5-11.2 12.7-19.9 20.6-34.3 4.5-8.2 15.9-33.9 18.1-40.7.9-2.8 2.2-5.6 2.9-6.1 1.7-1.3 22.4-7.7 34.6-10.6 12.1-3 31.2-6.2 43.1-7.5 14.3-1.4 45-1.2 60.3.4zM629.9 606c31.2 15.6 58.9 34.2 91.1 60.9 12.5 10.5 39 35.8 39 37.3 0 3-43.4 48.8-46.2 48.8-.5 0-.1-1.1 1-2.5l2-2.5-12.6-12.8c-36.5-36.9-66-79.8-86.3-125.5-3.4-7.7-4.3-10.7-3.3-10.7.8 0 7.7 3.1 15.3 7zM356 600.7c0 2.2-20.1 40.7-26.9 51.6-16.4 26.3-39.7 55.6-64 80.7l-13 13.5-13.8-14c-7.7-7.7-16.7-17.5-20.2-21.8l-6.4-7.9 8.9-9c34-34.4 81.2-68.4 122.9-88.4 11.4-5.5 12.5-5.9 12.5-4.7zm164 54.8c60.2 9.2 121.3 42.7 172.4 94.4 12.9 13 13.3 10.7-4 23.1-14.5 10.3-29.3 19.3-45.9 27.7l-13 6.6-13.5-13.7c-31.6-32.2-59.7-49.5-95-58.6-10.9-2.8-14.7-3.3-29.7-3.7-20.4-.7-31.8.5-48.7 5.2-34.9 9.6-68.4 29.3-98.2 57.8l-9.4 8.9-9.7-5.3c-12.3-6.6-28.7-16.6-37.8-23.2-13.6-9.7-20.5-15.2-20.5-16.2 0-2.6 27.5-27.8 45-41.2 48.6-37.2 98.1-57.6 154.5-63.7 8.4-.9 43.4.3 53.5 1.9zm-14.1 94.1c31.6 4.6 62.5 21.5 92.8 50.7 6.7 6.6 12.3 12.5 12.3 13.2 0 2-20.9 9.2-41 14-69.1 16.8-138.9 12.7-205.5-12-5.5-2.1-10.4-4.1-10.8-4.5-1.9-1.7 18.2-18.7 36.3-30.9 38.8-26 77.3-36.2 115.9-30.5zm-166.5 103c55.2 23.2 123.1 33.3 183.1 27.3 39.1-3.8 75.3-12.7 110.8-26.9 6.7-2.7 12.3-4.8 12.4-4.6.8.8-99 57.8-106.6 60.7-25 10-60.9 12.6-88.7 6.5-15-3.3-21.2-6.1-50.5-23.2-67.5-39.2-83.5-48.6-84.4-49.5-.5-.6 1.7.2 5 1.6 3.3 1.5 11.8 5.2 18.9 8.1z"/><path d="M470.4 447.3c-7.6 2.6-16.5 8.1-21.1 13.1-13.3 14.7-16 35.2-7.1 53 4.3 8.4 12.1 15.9 21.5 20.4 7.6 3.6 8.1 3.7 19.3 3.7 10.4-.1 12.1-.3 17.5-2.8 8.8-4.1 15.7-9.8 20.4-16.7 16-24.1 7.4-55.4-18.6-67.8-7.2-3.4-8.6-3.7-17.8-3.9-6.3-.2-11.5.2-14.1 1z"/></svg>