<?xml version="1.0" encoding="utf-8"?>
<svg id="master-artboard" viewBox="0 0 128.077880859375 204.9232635498047" version="1.1" xmlns="http://www.w3.org/2000/svg" x="0px" y="0px" style="enable-background:new 0 0 1400 980;" width="128.077880859375px" height="204.9232635498047px"><rect id="ee-background" x="0" y="0" width="128.077880859375" height="204.9232635498047" style="fill: white; fill-opacity: 0; pointer-events: none;"/><g transform="matrix(1, 0, 0, 1, -522.2601318359375, -339.15424728393555)">
	
	
	
	<path class="st5" d="M726.8,383.1c2.5-2,2.5-5.3,0-7.3l-101.5-81.9c-2.5-2-3.7-1.2-2.6,1.9l26.9,78.1c1.1,3,1.1,8,0,11l-27,79.3&#10;&#9;&#9;c-1.1,3,0,3.9,2.6,1.8L726.8,383.1L726.8,383.1z M726.8,383.1" style="fill: rgb(87, 138, 126);" transform="matrix(0.9999999999999999, 0, 0, 0.9999999999999999, -88.75127278066748, 60.949668661863484)"/>
	
<path d="M 593.5109252929688 395.9893798828125" style="fill-opacity: 1; stroke: rgb(0, 0, 0); stroke-opacity: 1; stroke-width: 0; paint-order: fill;"/><path d="M 626.6589965820312 415.2366638183594 L 625.5897216796875 415.2366638183594" style="fill: rgb(231, 129, 53); fill-opacity: 1; stroke: rgb(0, 0, 0); stroke-opacity: 1; stroke-width: 0; paint-order: fill;"/></g><g transform="matrix(1.017818808555603, 0, 0, 1.017818808555603, -1235.124755859375, -233.4749412536621)">
	
	
	
	<g class="st1" style="opacity: 0.5;">
		
	</g>
	<g class="st1" style="opacity: 0.5;">
		<path class="st9" d="M 1323.4001220703124 315.5666564941407 C 1333.9309105525824 324.18493365261355 1342.00424100921 326.7266953858916 1326.7822265625 339.3489685058594 C 1282.5833740234375 375.9991760253906 1276.6998291015625 380.14654541015625 1234.7437744140625 414.5323791503906 C 1220.8133257487923 425.9493270807585 1216.29052734375 423.0970153808594 1221.289453125 407.1208801269531 C 1245.953369140625 330.9322509765625 1246.943798828125 329.0551818847658 1246.743798828125 329.0551818847658 C 1246.743798828125 329.0551818847658 1224.1976318359375 258.1642150878906 1222.1 252.4332977294923 C 1214.4218013852833 231.456113245427 1223.7940676150274 234.45753450531106 1235.112548828125 243.6885223388672 C 1323.1895751953125 315.52130126953125 1235.536865234375 243.66012573242188 1323.4001220703124 315.5666564941407 Z" style="fill: none; stroke: rgb(0, 0, 0); stroke-width: 4; stroke-opacity: 1; paint-order: fill;"/>
	</g>
</g><path d="M 257.53411865234375 200.7827606201172" style="fill: rgb(87, 138, 126); fill-opacity: 1; stroke: rgb(51, 54, 74); stroke-opacity: 1; stroke-width: 3; paint-order: stroke;" transform="matrix(1, 0, 0, 1, -176.19976806640625, -8.782543182373047)"/><path d="M 255.8150634765625 171.17298889160156" style="fill: rgb(87, 138, 126); fill-opacity: 1; stroke: rgb(51, 54, 74); stroke-opacity: 1; stroke-width: 3; paint-order: stroke;" transform="matrix(1, 0, 0, 1, -176.19976806640625, -8.782543182373047)"/></svg>