<svg xmlns="http://www.w3.org/2000/svg" xmlns:xlink="http://www.w3.org/1999/xlink" width="291" height="291" viewBox="0 0 291 291">
  <defs>
    <clipPath id="clip-Artboard_2">
      <rect width="291" height="291"/>
    </clipPath>
  </defs>
  <g id="Artboard_2" data-name="Artboard – 2" clip-path="url(#clip-Artboard_2)">
    <circle id="Ellipse_4" data-name="Ellipse 4" cx="120" cy="120" r="120" transform="translate(24 24)" fill="#edede4"/>
    <g id="github">
      <path id="Path_5" data-name="Path 5" d="M145.66,0A145.66,145.66,0,1,0,291.32,145.66,145.666,145.666,0,0,0,145.66,0Zm40.8,256.625c-.838-11.4-1.775-25.518-1.83-31.235-.364-4.388-.838-15.549-11.434-22.677,42.068-3.523,62.087-26.774,63.526-57.5,1.2-17.5-5.754-32.883-18.107-45.3a248.9,248.9,0,0,0-1.256-35.941c-9.486-2.731-31.608,8.949-37.79,13.947-13.037-5.062-44.945-6.837-64.336,0-13.747-9.668-29.4-15.64-37.926-13.974C69.434,81.4,74.5,97.894,76.034,99.86c-10.142,9.268-24.289,20.675-20.447,44.572C61.75,179.472,86.4,198.372,126.1,203c-8.466,1.73-9.9,8.048-10.606,10.788-26.656,11-34.275-6.791-37.644-11.425-11.188-13.847-21.23-9.832-21.849-9.614A1.75,1.75,0,0,0,55,194.256c.564,2.986,6.655,6.018,6.955,6.263,8.257,6.154,11.316,17.27,13.2,20.438C87,240.43,114.533,232.355,114.8,232.519c.018,1.7-.191,16.032-.355,27.184a118.37,118.37,0,1,1,72.02-3.078Z" fill="#2b414d"/>
    </g>
  </g>
</svg>
