<svg xmlns="http://www.w3.org/2000/svg" xmlns:xlink="http://www.w3.org/1999/xlink" width="291.32" height="291.32" viewBox="0 0 291.32 291.32">
  <defs>
    <clipPath id="clip-iPhone_X_XS_11_Pro_1">
      <rect width="291.32" height="291.32"/>
    </clipPath>
  </defs>
  <g id="iPhone_X_XS_11_Pro_1" data-name="iPhone X/XS/11 Pro – 1" clip-path="url(#clip-iPhone_X_XS_11_Pro_1)">
    <g id="icons8-google" transform="translate(21.721 19.905)">
      <path id="Path_6" data-name="Path 6" d="M163.126,70.825A78.862,78.862,0,0,1,41.292,37.24,242.559,242.559,0,0,0,6,64.381,119.488,119.488,0,0,0,196.412,95.96Z" transform="translate(13.985 115.144)" fill="#72caaf"/>
      <path id="Path_7" data-name="Path 7" d="M51.125,108.894a79.118,79.118,0,0,1,5.676-69.3A212.132,212.132,0,0,1,23.43,15.31a119.488,119.488,0,0,0-7.6,120.725C32.9,124.94,32.9,120.672,51.125,108.894Z" transform="translate(4.151 43.489)" fill="#f9e3ae"/>
      <path id="Path_8" data-name="Path 8" d="M39.54,82.769A78.819,78.819,0,0,1,155.528,56.738l26.842-26.8A119.488,119.488,0,0,0,7.79,55.543C17.221,62.8,25.756,67.065,39.54,82.769Z" transform="translate(19.833 3.214)" fill="#ed7899"/>
      <path id="Path_9" data-name="Path 9" d="M142.953,65.407l-8.535,29.872-21.337,38.407-29.872-25.6,12.8-21.337,1.878-21.337H32V27H142.953Z" transform="translate(98.937 81.685)" fill="#85cbf8"/>
      <path id="Path_10" data-name="Path 10" d="M237.623,105.271H136.7a8.535,8.535,0,0,0-8.535,8.535v30.811a8.535,8.535,0,0,0,8.535,8.535h58.037c-7.681,30.9-31.237,48.136-67.169,48.136a76.472,76.472,0,0,1-77.112-75.533A76.472,76.472,0,0,1,127.566,49.88,78.008,78.008,0,0,1,172.075,63.75a8.52,8.52,0,0,0,11.309-1.28l20.74-23.385a8.535,8.535,0,0,0-1.28-12.546A127.3,127.3,0,0,0,127.566,2C58.178,2,1.72,57.476,1.72,125.755S58.178,249.51,127.566,249.51c70.924-.341,118.591-48.563,118.591-120.3V113.806A8.535,8.535,0,0,0,237.623,105.271ZM127.566,10.535a119.231,119.231,0,0,1,70.156,22.873L176.94,56.751A86.372,86.372,0,0,0,58.05,76.594L32.787,57.775a117.909,117.909,0,0,1,94.779-47.24ZM28.05,64.774,53.356,83.721a82.02,82.02,0,0,0-6.486,69.644L20.71,173A112.745,112.745,0,0,1,28.05,64.774ZM24.636,180.719l25.6-19.2a85.775,85.775,0,0,0,77.326,48.307,81.337,81.337,0,0,0,51.209-15.875l23.769,20.4c-18.947,16.771-44.68,26.287-75.021,26.287A117.738,117.738,0,0,1,24.636,180.719Zm212.987-51.508c0,32.475-10.541,59.744-28.89,79.161L185.219,188.23a71.053,71.053,0,0,0,17.8-33.03,8.535,8.535,0,0,0-8.279-10.583H136.7V113.806H237.623Z" transform="translate(0 0)" fill="#8d6c9f"/>
      <path id="Path_11" data-name="Path 11" d="M16,76.077a4.267,4.267,0,0,0,4.267,4.267H28.8a4.267,4.267,0,1,0,0-8.535H20.267A4.267,4.267,0,0,0,16,76.077Zm8.535,26.629a4.267,4.267,0,0,0,1.579-.3l7.895-3.2a4.267,4.267,0,0,0-3.2-7.895l-7.895,3.2a4.267,4.267,0,0,0,1.622,8.193Zm12.5,19.161a4.267,4.267,0,0,0,2.945-1.195l6.145-5.932a4.27,4.27,0,0,0-5.932-6.145l-6.1,5.889a4.267,4.267,0,0,0,2.945,7.34Zm23.9-3.115a4.267,4.267,0,0,0-5.633,2.176l-3.457,7.809a4.279,4.279,0,0,0,7.809,3.5l3.286-7.639a4.267,4.267,0,0,0-2.006-5.846Zm-30-57.909A4.271,4.271,0,1,0,34.094,52.9L26.2,49.7A4.267,4.267,0,0,0,23,57.6ZM46.128,37.457l-6.145-5.932a4.267,4.267,0,0,0-5.889,6.145L40.239,43.6a4.27,4.27,0,0,0,5.932-6.145Zm16.814-9.9-3.457-7.809A4.27,4.27,0,0,0,51.676,23.2l3.457,7.809a4.27,4.27,0,0,0,7.809-3.457Z" transform="translate(46.659 49.678)" fill="#8d6c9f"/>
    </g>
  </g>
</svg>
