<?xml version="1.0" encoding="utf-8"?>
<svg id="master-artboard" viewBox="0 0 218.17242431640625 229.24041748046875" version="1.1" xmlns="http://www.w3.org/2000/svg" x="0px" y="0px" width="218.17242431640625px" height="229.24041748046875px" enable-background="new 0 0 1400 980"><rect id="ee-background" x="0" y="0" width="218.17242431640625" height="229.24041748046875" style="fill: white; fill-opacity: 0; pointer-events: none;"/>
<g transform="matrix(1, 0, 0, 1, -1007.2307718382679, -108.46778502147066)">
			<path fill="#FFFFFF" d="M1134.6,163v-39.9c0-0.8-0.5-1.4-1.3-1.6c-0.1,0-4.9-0.9-11.2-0.9c-16.4,0-25.4,6.6-25.4,18.5v64.4h-53.9&#10;&#9;&#9;&#9;&#9;c-11.7,0-21.2,9.5-21.2,21.2v74.6c0,11.7,9.5,21.1,21.2,21.1H1180V203.5L1134.6,163z" style="fill: rgb(230, 230, 230);"/>
			<path d="M1180,324.1h-137.1c-13.7,0-24.8-11.1-24.8-24.8v-74.6c0-13.7,11.1-24.8,24.8-24.8h50.3v-60.7c0-14.1,10.6-22.2,29-22.2&#10;&#9;&#9;&#9;&#9;c6,0,10.9,0.8,11.8,1c2.6,0.5,4.3,2.7,4.3,5.2v38.2l44.2,39.4c0.8,0.7,1.2,1.7,1.2,2.7v116.9C1183.6,322.4,1182,324.1,1180,324.1&#10;&#9;&#9;&#9;&#9;z M1042.8,207.2c-9.6,0-17.5,7.8-17.5,17.5v74.6c0,9.6,7.8,17.5,17.5,17.5h133.4V205.2l-44.2-39.4c-0.8-0.7-1.2-1.7-1.2-2.7&#10;&#9;&#9;&#9;&#9;v-38.1c-1.9-0.3-5-0.6-8.8-0.6c-9.9,0-21.7,2.6-21.7,14.8v64.4c0,2-1.6,3.7-3.7,3.7H1042.8z"/>
		<path style="fill: rgb(230, 230, 230); fill-opacity: 1; stroke: rgb(0, 0, 0); stroke-opacity: 1; stroke-width: 0; paint-order: fill;" d="M 1042.9896240234375 243.185546875"/></g><path fill="#6FD2FF" d="M1205.1,203.5H1180v116.9h25.2c0.9,0,1.6-0.7,1.6-1.6V205.1C1206.7,204.2,1206,203.5,1205.1,203.5z" transform="matrix(1, 0, 0, 1, -1007.2307718382679, -108.46778502147066)" style="fill: rgb(121, 130, 145);"/><path d="M1205.1,324.1H1180c-2,0-3.7-1.6-3.7-3.7V203.5c0-2,1.6-3.7,3.7-3.7h25.2c2.9,0,5.3,2.4,5.3,5.3v113.7&#10;&#9;&#9;&#9;&#9;C1210.4,321.7,1208,324.1,1205.1,324.1z M1183.6,316.7h19.4V207.2h-19.4V316.7z" transform="matrix(1, 0, 0, 1, -1007.2307718382679, -108.46778502147066)"/>
</svg>