<?xml version="1.0" encoding="utf-8"?>
<svg id="master-artboard" viewBox="0 0 450.4903869628906 487.7048034667969" version="1.1" xmlns="http://www.w3.org/2000/svg" x="0px" y="0px" style="enable-background:new 0 0 1400 980;" width="450.4903869628906px" height="487.7048034667969px"><defs><radialGradient id="gradient-0" gradientUnits="objectBoundingBox" cx="0.5" cy="0.5" r="0.5">
                <stop offset="0" style="stop-color: #004662"/>
                <stop offset="1" style="stop-color: #000000"/>
              </radialGradient></defs><rect id="ee-background" x="0" y="0" width="450.4903869628906" height="487.7048034667969" style="fill: white; fill-opacity: 0; pointer-events: none;"/><pattern x="25" y="442.5" width="110.7" height="148.9" patternUnits="userSpaceOnUse" id="Unnamed_Pattern" viewBox="71.3 -148.9 110.7 148.9" style="overflow:visible;">
	<g>
		<path d="M 71.30000305175781 -148.89999389648438 L 182 -148.89999389648438 L 182 0 L 71.30000305175781 0 Z" class="st0" style="fill: none;"/>
		<path class="st1" d="M176.5-33.1c3.7-0.2,4.9-4,4.9-4c-0.3-5.1-3-4.5-3-4.5c4.5-1.6,7.1,3.6,4.1,8.1c-0.5,0.7-3.1,3.2-6.4,3.4&#10;&#9;&#9;&#9;c0.8,1.9,1.2,4,1.3,6c0,0,0,0,0.1,0c0,0,0-0.1,0.1-0.1c1.1-1.3,2.5-2.1,4.1-2.3c-0.3-4.4,2.3-8.3,5.5-10c1-0.5,2-0.9,3-1.1&#10;&#9;&#9;&#9;c-0.4-3.6-2.8-6.7-5.5-8.2c-5.8-3.2-13.2-0.7-14.1,5.1C169.7-35.3,172.8-32.9,176.5-33.1z M188.1-35.4c0.7-0.4,1.3-0.6,2-0.9&#10;&#9;&#9;&#9;c3.4-1.1,7.1-0.5,9.4,1.5c1.4,1.1,2.3,2.6,2.6,4.5c0.5,3.5-1,5.7-3.2,6.8c1,0.3,1.9,0.8,2.7,1.5c2.4,2.3,3.3,7.3-1.5,10.3&#10;&#9;&#9;&#9;c-1.9,1.2-4.2,1.4-6.2,0.8c0.2-1,0.3-2.1,0.3-3.4c1.6,0.4,2.9-0.6,3.3-0.9c2.4-2.1-0.2-0.4-2.3-0.8c-0.5-0.1-0.9-0.3-1.3-0.5&#10;&#9;&#9;&#9;c-0.2-1.3-0.6-2.6-1.2-4.1c0.1-0.2,0.1-0.4,0.2-0.6c0.3-0.7,0.8-1.3,1.3-1.7c-3-0.6-3.6-3.6-3.6-3.6c0-0.1,0-0.2,0-0.4&#10;&#9;&#9;&#9;c0.1-5,3.1-4.5,3.6-4.4c-1.2-0.4-2.3-0.3-3.2,0.2c-1.9,1.1-3,3.8-2.3,6.6c-0.3-0.2-0.6-0.4-0.9-0.6c-1.1-0.7-2.3-1.1-3.5-1.4&#10;&#9;&#9;&#9;c-0.6-0.1-1.2-0.2-1.8-0.2C182.7-30.4,185.2-33.8,188.1-35.4z M171.1-8.9c-0.1,0.1-0.1,0.1-0.2,0.2c-0.3,0.3-0.6,0.7-0.8,0.9&#10;&#9;&#9;&#9;c0,0,0-0.1-0.1-0.1c-2,1.7-4.4,2.9-7.1,3.1c-10.8,0.9-18.4-4.2-26.8-14.1c-8.5-9.9-25.4-1.4-25.4-1.4s16.9-12.7,28.7-3.3&#10;&#9;&#9;&#9;c11.8,9.4,19.1,15.3,25.9,10.6c8.5-5.9,2.6-13,1.4-13.9c-4.5-3.3-9.9-0.9-8.5,3.8c0,0-0.5-2.8,4.7-2.8c0,0,3.8,1.4,3.8,5.2&#10;&#9;&#9;&#9;c0,3.8-2.6,6.7-8,5.6c-5.9-1.2-8-8.8-4.5-14.6c2.6-4.2,8.9-7.2,15-3.5l0.1-0.1c0.1,0.2,0.3,0.3,0.4,0.5c0.7,0.5,1.4,1.1,2.1,1.8&#10;&#9;&#9;&#9;c0.4,0.3,0.9,0.5,1.3,0.7c0.4,0.6,0.8,1.5,1.2,2.8c0.3,1,0.6,2.2,0.7,3.7c0.1,1.4,0.2,3,0.1,4.9c-0.1,1.6-0.5,3.3-1.1,4.9&#10;&#9;&#9;&#9;c-0.2,0.4-0.3,0.8-0.5,1.2C172.9-11.5,172.1-10.1,171.1-8.9z M215.2-18.4c0,0-4.2,3.1-6.1,0.5c0,0-2.4-5.4,2.1-4.9&#10;&#9;&#9;&#9;c0,0-0.4-1.7-2.4-0.9c-2.4,0.9-1.4,6.8-0.7,7.8c0,0,1.3,4.3-2.8,8c-2.8,2.4-8.6,4.1-14.1,2.5c0.6-0.7,1.6-2,2.3-3.9&#10;&#9;&#9;&#9;c2.7,0.6,6.4,0.7,8.5-1.9c0,0,3.3-1.9,2.8-5.2c-0.5-3.3-0.5-3.1-1.2-4.5c-0.7-1.4-0.8-2.9,0.2-4.9c1.2-2.4,4.7-4.5,8.9-2.1&#10;&#9;&#9;&#9;C217.4-25.5,216.8-19.8,215.2-18.4z M191.9-8.7c-0.3,0.5-0.6,1.1-1.1,1.6c-0.3,0.4-0.6,0.7-0.9,1.1c0,0-0.1,0-0.1,0&#10;&#9;&#9;&#9;c-1.3,1.2-3.1,2.2-5.3,2.8c-6.1,1.7-10.6,0.5-13.5-3.2c0.4-0.2,0.8-0.5,1.2-0.9c1-0.9,2.1-2.1,2.9-3.9c3.1,2.8,7.7,1.7,8.6,1.3&#10;&#9;&#9;&#9;c1.7-0.8,2.8-2,3.4-3.3c0.6-1.2,0.6-2.5,0.2-3.6c-0.3-0.3-0.7-0.6-1-0.9c-0.1-0.1-0.1-0.1-0.2-0.2c0,0,0,0,0-0.1&#10;&#9;&#9;&#9;c0-0.1,0-0.2,0-0.3c-0.2-0.1-0.4-0.2-0.6-0.3c0,0-0.1,0-0.1-0.1c-0.3-0.2-0.7-0.3-1.1-0.4c0,0,2.3,0.8,0.7,4.5&#10;&#9;&#9;&#9;c-0.1,0.3-0.2,0.6-0.4,0.9c0,0-2.2,3.6-6.4,1.5c-0.9-0.5-1.6-1.1-2.1-1.8c0.2-0.6,0.3-1.2,0.4-1.9c0,0,0,0,0,0&#10;&#9;&#9;&#9;c0.3-1.7,0.7-4,0.8-6.5c1.2-1.4,2.8-2.1,4.5-2.3c0.3,0,0.6-0.1,0.9-0.1c2.1-0.1,4.3,0.7,6.2,2.1c0.4,0.3,0.7,0.6,1,0.9&#10;&#9;&#9;&#9;c0.7,0.7,1.4,1.5,1.9,2.4c0.3,0.4,0.5,0.9,0.7,1.4c0.3,1,0.6,2.1,0.7,3.3c0.1,1.2,0,2.4-0.3,3.6c-0.1,0.5-0.3,1-0.5,1.5&#10;&#9;&#9;&#9;C192.2-9.4,192-9.1,191.9-8.7z" style="fill: rgb(53, 73, 94);"/>
		<path class="st1" d="M65.8-33.1c3.7-0.2,4.9-4,4.9-4c-0.3-5.1-3-4.5-3-4.5c4.5-1.6,7.1,3.6,4.1,8.1c-0.5,0.7-3.1,3.2-6.4,3.4&#10;&#9;&#9;&#9;c0.8,1.9,1.2,4,1.3,6c0,0,0,0,0.1,0c0,0,0-0.1,0.1-0.1c1.1-1.3,2.5-2.1,4.1-2.3c-0.3-4.4,2.3-8.3,5.5-10c1-0.5,2-0.9,3-1.1&#10;&#9;&#9;&#9;c-0.4-3.6-2.8-6.7-5.5-8.2c-5.8-3.2-13.2-0.7-14.1,5.1C59-35.3,62.1-32.9,65.8-33.1z M77.4-35.4c0.7-0.4,1.3-0.6,2-0.9&#10;&#9;&#9;&#9;c3.4-1.1,7.1-0.5,9.4,1.5c1.4,1.1,2.3,2.6,2.6,4.5c0.5,3.5-1,5.7-3.2,6.8c1,0.3,1.9,0.8,2.7,1.5c2.4,2.3,3.3,7.3-1.5,10.3&#10;&#9;&#9;&#9;c-1.9,1.2-4.2,1.4-6.2,0.8c0.2-1,0.3-2.1,0.3-3.4c1.6,0.4,2.9-0.6,3.3-0.9c2.4-2.1-0.2-0.4-2.3-0.8c-0.5-0.1-0.9-0.3-1.3-0.5&#10;&#9;&#9;&#9;c-0.2-1.3-0.6-2.6-1.2-4.1c0.1-0.2,0.1-0.4,0.2-0.6c0.3-0.7,0.8-1.3,1.3-1.7c-3-0.6-3.6-3.6-3.6-3.6c0-0.1,0-0.2,0-0.4&#10;&#9;&#9;&#9;c0.1-5,3.1-4.5,3.6-4.4c-1.2-0.4-2.3-0.3-3.2,0.2c-1.9,1.1-3,3.8-2.3,6.6c-0.3-0.2-0.6-0.4-0.9-0.6c-1.1-0.7-2.3-1.1-3.5-1.4&#10;&#9;&#9;&#9;c-0.6-0.1-1.2-0.2-1.8-0.2C72-30.4,74.5-33.8,77.4-35.4z M60.4-8.9c-0.1,0.1-0.1,0.1-0.2,0.2c-0.3,0.3-0.6,0.7-0.8,0.9&#10;&#9;&#9;&#9;c0,0,0-0.1-0.1-0.1c-2,1.7-4.4,2.9-7.1,3.1C41.4-3.8,33.9-9,25.4-18.9C16.9-28.8,0-20.3,0-20.3S16.9-33,28.7-23.6&#10;&#9;&#9;&#9;C40.5-14.2,47.8-8.3,54.6-13c8.5-5.9,2.6-13,1.4-13.9c-4.5-3.3-9.9-0.9-8.5,3.8c0,0-0.5-2.8,4.7-2.8c0,0,3.8,1.4,3.8,5.2&#10;&#9;&#9;&#9;c0,3.8-2.6,6.7-8,5.6c-5.9-1.2-8-8.8-4.5-14.6c2.6-4.2,8.9-7.2,15-3.5l0.1-0.1c0.1,0.2,0.3,0.3,0.4,0.5c0.7,0.5,1.4,1.1,2.1,1.8&#10;&#9;&#9;&#9;c0.4,0.3,0.9,0.5,1.3,0.7c0.4,0.6,0.8,1.5,1.2,2.8c0.3,1,0.6,2.2,0.7,3.7c0.1,1.4,0.2,3,0.1,4.9c-0.1,1.6-0.5,3.3-1.1,4.9&#10;&#9;&#9;&#9;c-0.2,0.4-0.3,0.8-0.5,1.2C62.2-11.5,61.4-10.1,60.4-8.9z M104.5-18.4c0,0-4.2,3.1-6.1,0.5c0,0-2.4-5.4,2.1-4.9&#10;&#9;&#9;&#9;c0,0-0.4-1.7-2.4-0.9c-2.4,0.9-1.4,6.8-0.7,7.8c0,0,1.3,4.3-2.8,8C91.8-5.6,86-4,80.5-5.5c0.6-0.7,1.6-2,2.3-3.9&#10;&#9;&#9;&#9;c2.7,0.6,6.4,0.7,8.5-1.9c0,0,3.3-1.9,2.8-5.2c-0.5-3.3-0.5-3.1-1.2-4.5c-0.7-1.4-0.8-2.9,0.2-4.9c1.2-2.4,4.7-4.5,8.9-2.1&#10;&#9;&#9;&#9;C106.7-25.5,106.1-19.8,104.5-18.4z M81.2-8.7c-0.3,0.5-0.6,1.1-1.1,1.6c-0.3,0.4-0.6,0.7-0.9,1.1c0,0-0.1,0-0.1,0&#10;&#9;&#9;&#9;c-1.3,1.2-3.1,2.2-5.3,2.8c-6.1,1.7-10.6,0.5-13.5-3.2c0.4-0.2,0.8-0.5,1.2-0.9c1-0.9,2.1-2.1,2.9-3.9c3.1,2.8,7.7,1.7,8.6,1.3&#10;&#9;&#9;&#9;c1.7-0.8,2.8-2,3.4-3.3c0.6-1.2,0.6-2.5,0.2-3.6c-0.3-0.3-0.7-0.6-1-0.9c-0.1-0.1-0.1-0.1-0.2-0.2c0,0,0,0,0-0.1&#10;&#9;&#9;&#9;c0-0.1,0-0.2,0-0.3c-0.2-0.1-0.4-0.2-0.6-0.3c0,0-0.1,0-0.1-0.1c-0.3-0.2-0.7-0.3-1.1-0.4c0,0,2.3,0.8,0.7,4.5&#10;&#9;&#9;&#9;c-0.1,0.3-0.2,0.6-0.4,0.9c0,0-2.2,3.6-6.4,1.5c-0.9-0.5-1.6-1.1-2.1-1.8c0.2-0.6,0.3-1.2,0.4-1.9c0,0,0,0,0,0&#10;&#9;&#9;&#9;c0.3-1.7,0.7-4,0.8-6.5c1.2-1.4,2.8-2.1,4.5-2.3c0.3,0,0.6-0.1,0.9-0.1c2.1-0.1,4.3,0.7,6.2,2.1c0.4,0.3,0.7,0.6,1,0.9&#10;&#9;&#9;&#9;c0.7,0.7,1.4,1.5,1.9,2.4c0.3,0.4,0.5,0.9,0.7,1.4c0.3,1,0.6,2.1,0.7,3.3c0.1,1.2,0,2.4-0.3,3.6c-0.1,0.5-0.3,1-0.5,1.5&#10;&#9;&#9;&#9;C81.5-9.4,81.3-9.1,81.2-8.7z" style="fill: rgb(53, 73, 94);"/>
		<path class="st1" d="M139.6-82.7c3.7-0.2,4.9-4,4.9-4c-0.3-5.1-3-4.5-3-4.5c4.5-1.6,7.1,3.6,4.1,8.1c-0.5,0.7-3.1,3.2-6.4,3.4&#10;&#9;&#9;&#9;c0.8,1.9,1.2,4,1.3,6c0,0,0,0,0.1,0c0,0,0-0.1,0.1-0.1c1.1-1.3,2.5-2.1,4.1-2.3c-0.3-4.4,2.3-8.3,5.5-10c1-0.5,2-0.9,3-1.1&#10;&#9;&#9;&#9;c-0.4-3.6-2.8-6.7-5.5-8.2c-5.8-3.2-13.2-0.7-14.1,5.1C132.8-84.9,135.9-82.5,139.6-82.7z M151.2-85c0.7-0.4,1.3-0.6,2-0.9&#10;&#9;&#9;&#9;c3.4-1.1,7.1-0.5,9.4,1.5c1.4,1.1,2.3,2.6,2.6,4.5c0.5,3.5-1,5.7-3.2,6.8c1,0.3,1.9,0.8,2.7,1.5c2.4,2.3,3.3,7.3-1.5,10.3&#10;&#9;&#9;&#9;c-1.9,1.2-4.2,1.4-6.2,0.8c0.2-1,0.3-2.1,0.3-3.4c1.6,0.4,2.9-0.6,3.3-0.9c2.4-2.1-0.2-0.4-2.3-0.8c-0.5-0.1-0.9-0.3-1.3-0.5&#10;&#9;&#9;&#9;c-0.2-1.3-0.6-2.6-1.2-4.1c0.1-0.2,0.1-0.4,0.2-0.6c0.3-0.7,0.8-1.3,1.3-1.7c-3-0.6-3.6-3.6-3.6-3.6c0-0.1,0-0.2,0-0.4&#10;&#9;&#9;&#9;c0.1-5,3.1-4.5,3.6-4.4c-1.2-0.4-2.3-0.3-3.2,0.2c-1.9,1.1-3,3.8-2.3,6.6c-0.3-0.2-0.6-0.4-0.9-0.6c-1.1-0.7-2.3-1.1-3.5-1.4&#10;&#9;&#9;&#9;c-0.6-0.1-1.2-0.2-1.8-0.2C145.8-80.1,148.3-83.4,151.2-85z M134.2-58.6c-0.1,0.1-0.1,0.1-0.2,0.2c-0.3,0.3-0.6,0.7-0.8,0.9&#10;&#9;&#9;&#9;c0,0,0-0.1-0.1-0.1c-2,1.7-4.4,2.9-7.1,3.1c-10.8,0.9-18.4-4.2-26.8-14.1C90.7-78.4,73.8-70,73.8-70s16.9-12.7,28.7-3.3&#10;&#9;&#9;&#9;c11.8,9.4,19.1,15.3,25.9,10.6c8.5-5.9,2.6-13,1.4-13.9c-4.5-3.3-9.9-0.9-8.5,3.8c0,0-0.5-2.8,4.7-2.8c0,0,3.8,1.4,3.8,5.2&#10;&#9;&#9;&#9;c0,3.8-2.6,6.7-8,5.6c-5.9-1.2-8-8.8-4.5-14.6c2.6-4.2,8.9-7.2,15-3.5l0.1-0.1c0.1,0.2,0.3,0.3,0.4,0.5c0.7,0.5,1.4,1.1,2.1,1.8&#10;&#9;&#9;&#9;c0.4,0.3,0.9,0.5,1.3,0.7c0.4,0.6,0.8,1.5,1.2,2.8c0.3,1,0.6,2.2,0.7,3.7c0.1,1.4,0.2,3,0.1,4.9c-0.1,1.6-0.5,3.3-1.1,4.9&#10;&#9;&#9;&#9;c-0.2,0.4-0.3,0.8-0.5,1.2C136-61.2,135.2-59.8,134.2-58.6z M178.3-68.1c0,0-4.2,3.1-6.1,0.5c0,0-2.4-5.4,2.1-4.9&#10;&#9;&#9;&#9;c0,0-0.4-1.7-2.4-0.9c-2.4,0.9-1.4,6.8-0.7,7.8c0,0,1.3,4.3-2.8,8c-2.8,2.4-8.6,4.1-14.1,2.5c0.6-0.7,1.6-2,2.3-3.9&#10;&#9;&#9;&#9;c2.7,0.6,6.4,0.7,8.5-1.9c0,0,3.3-1.9,2.8-5.2c-0.5-3.3-0.5-3.1-1.2-4.5c-0.7-1.4-0.8-2.9,0.2-4.9c1.2-2.4,4.7-4.5,8.9-2.1&#10;&#9;&#9;&#9;C180.5-75.1,179.9-69.5,178.3-68.1z M155-58.4c-0.3,0.5-0.6,1.1-1.1,1.6c-0.3,0.4-0.6,0.7-0.9,1.1c0,0-0.1,0-0.1,0&#10;&#9;&#9;&#9;c-1.3,1.2-3.1,2.2-5.3,2.8c-6.1,1.7-10.6,0.5-13.5-3.2c0.4-0.2,0.8-0.5,1.2-0.9c1-0.9,2.1-2.1,2.9-3.9c3.1,2.8,7.7,1.7,8.6,1.3&#10;&#9;&#9;&#9;c1.7-0.8,2.8-2,3.4-3.3c0.6-1.2,0.6-2.5,0.2-3.6c-0.3-0.3-0.7-0.6-1-0.9c-0.1-0.1-0.1-0.1-0.2-0.2c0,0,0,0,0-0.1&#10;&#9;&#9;&#9;c0-0.1,0-0.2,0-0.3c-0.2-0.1-0.4-0.2-0.6-0.3c0,0-0.1,0-0.1-0.1c-0.3-0.2-0.7-0.3-1.1-0.4c0,0,2.3,0.8,0.7,4.5&#10;&#9;&#9;&#9;c-0.1,0.3-0.2,0.6-0.4,0.9c0,0-2.2,3.6-6.4,1.5c-0.9-0.5-1.6-1.1-2.1-1.8c0.2-0.6,0.3-1.2,0.4-1.9c0,0,0,0,0,0&#10;&#9;&#9;&#9;c0.3-1.7,0.7-4,0.8-6.5c1.2-1.4,2.8-2.1,4.5-2.3c0.3,0,0.6-0.1,0.9-0.1c2.1-0.1,4.3,0.7,6.2,2.1c0.4,0.3,0.7,0.6,1,0.9&#10;&#9;&#9;&#9;c0.7,0.7,1.4,1.5,1.9,2.4c0.3,0.4,0.5,0.9,0.7,1.4c0.3,1,0.6,2.1,0.7,3.3c0.1,1.2,0,2.4-0.3,3.6c-0.1,0.5-0.3,1-0.5,1.5&#10;&#9;&#9;&#9;C155.3-59,155.1-58.7,155-58.4z" style="fill: rgb(53, 73, 94);"/>
		<path class="st1" d="M213.4-132.3c3.7-0.2,4.9-4,4.9-4c-0.3-5.1-3-4.5-3-4.5c4.5-1.6,7.1,3.6,4.1,8.1c-0.5,0.7-3.1,3.2-6.4,3.4&#10;&#9;&#9;&#9;c0.8,1.9,1.2,4,1.3,6c0,0,0,0,0.1,0c0,0,0-0.1,0.1-0.1c1.1-1.3,2.5-2.1,4.1-2.3c-0.3-4.4,2.3-8.3,5.5-10c1-0.5,2-0.9,3-1.1&#10;&#9;&#9;&#9;c-0.4-3.6-2.8-6.7-5.5-8.2c-5.8-3.2-13.2-0.7-14.1,5.1C206.6-134.6,209.7-132.2,213.4-132.3z M225-134.7c0.7-0.4,1.3-0.6,2-0.9&#10;&#9;&#9;&#9;c3.4-1.1,7.1-0.5,9.4,1.5c1.4,1.1,2.3,2.6,2.6,4.5c0.5,3.5-1,5.7-3.2,6.8c1,0.3,1.9,0.8,2.7,1.5c2.4,2.3,3.3,7.3-1.5,10.3&#10;&#9;&#9;&#9;c-1.9,1.2-4.2,1.4-6.2,0.8c0.2-1,0.3-2.1,0.3-3.4c1.6,0.4,2.9-0.6,3.3-0.9c2.4-2.1-0.2-0.4-2.3-0.8c-0.5-0.1-0.9-0.3-1.3-0.5&#10;&#9;&#9;&#9;c-0.2-1.3-0.6-2.6-1.2-4.1c0.1-0.2,0.1-0.4,0.2-0.6c0.3-0.7,0.8-1.3,1.3-1.7c-3-0.6-3.6-3.6-3.6-3.6c0-0.1,0-0.2,0-0.4&#10;&#9;&#9;&#9;c0.1-5,3.1-4.5,3.6-4.4c-1.2-0.4-2.3-0.3-3.2,0.2c-1.9,1.1-3,3.8-2.3,6.6c-0.3-0.2-0.6-0.4-0.9-0.6c-1.1-0.7-2.3-1.1-3.5-1.4&#10;&#9;&#9;&#9;c-0.6-0.1-1.2-0.2-1.8-0.2C219.6-129.7,222.1-133.1,225-134.7z M208-108.2c-0.1,0.1-0.1,0.1-0.2,0.2c-0.3,0.3-0.6,0.7-0.8,0.9&#10;&#9;&#9;&#9;c0,0,0-0.1-0.1-0.1c-2,1.7-4.4,2.9-7.1,3.1c-10.8,0.9-18.4-4.2-26.8-14.1c-8.5-9.9-25.4-1.4-25.4-1.4s16.9-12.7,28.7-3.3&#10;&#9;&#9;&#9;c11.8,9.4,19.1,15.3,25.9,10.6c8.5-5.9,2.6-13,1.4-13.9c-4.5-3.3-9.9-0.9-8.5,3.8c0,0-0.5-2.8,4.7-2.8c0,0,3.8,1.4,3.8,5.2&#10;&#9;&#9;&#9;c0,3.8-2.6,6.7-8,5.6c-5.9-1.2-8-8.8-4.5-14.6c2.6-4.2,8.9-7.2,15-3.5l0.1-0.1c0.1,0.2,0.3,0.3,0.4,0.5c0.7,0.5,1.4,1.1,2.1,1.8&#10;&#9;&#9;&#9;c0.4,0.3,0.9,0.5,1.3,0.7c0.4,0.6,0.8,1.5,1.2,2.8c0.3,1,0.6,2.2,0.7,3.7c0.1,1.4,0.2,3,0.1,4.9c-0.1,1.6-0.5,3.3-1.1,4.9&#10;&#9;&#9;&#9;c-0.2,0.4-0.3,0.8-0.5,1.2C209.8-110.8,209-109.4,208-108.2z M252.1-117.7c0,0-4.2,3.1-6.1,0.5c0,0-2.4-5.4,2.1-4.9&#10;&#9;&#9;&#9;c0,0-0.4-1.7-2.4-0.9c-2.4,0.9-1.4,6.8-0.7,7.8c0,0,1.3,4.3-2.8,8c-2.8,2.4-8.6,4.1-14.1,2.5c0.6-0.7,1.6-2,2.3-3.9&#10;&#9;&#9;&#9;c2.7,0.6,6.4,0.7,8.5-1.9c0,0,3.3-1.9,2.8-5.2c-0.5-3.3-0.5-3.1-1.2-4.5c-0.7-1.4-0.8-2.9,0.2-4.9c1.2-2.4,4.7-4.5,8.9-2.1&#10;&#9;&#9;&#9;C254.3-124.8,253.7-119.1,252.1-117.7z M228.8-108c-0.3,0.5-0.6,1.1-1.1,1.6c-0.3,0.4-0.6,0.7-0.9,1.1c0,0-0.1,0-0.1,0&#10;&#9;&#9;&#9;c-1.3,1.2-3.1,2.2-5.3,2.8c-6.1,1.7-10.6,0.5-13.5-3.2c0.4-0.2,0.8-0.5,1.2-0.9c1-0.9,2.1-2.1,2.9-3.9c3.1,2.8,7.7,1.7,8.6,1.3&#10;&#9;&#9;&#9;c1.7-0.8,2.8-2,3.4-3.3c0.6-1.2,0.6-2.5,0.2-3.6c-0.3-0.3-0.7-0.6-1-0.9c-0.1-0.1-0.1-0.1-0.2-0.2c0,0,0,0,0-0.1&#10;&#9;&#9;&#9;c0-0.1,0-0.2,0-0.3c-0.2-0.1-0.4-0.2-0.6-0.3c0,0-0.1,0-0.1-0.1c-0.3-0.2-0.7-0.3-1.1-0.4c0,0,2.3,0.8,0.7,4.5&#10;&#9;&#9;&#9;c-0.1,0.3-0.2,0.6-0.4,0.9c0,0-2.2,3.6-6.4,1.5c-0.9-0.5-1.6-1.1-2.1-1.8c0.2-0.6,0.3-1.2,0.4-1.9c0,0,0,0,0,0&#10;&#9;&#9;&#9;c0.3-1.7,0.7-4,0.8-6.5c1.2-1.4,2.8-2.1,4.5-2.3c0.3,0,0.6-0.1,0.9-0.1c2.1-0.1,4.3,0.7,6.2,2.1c0.4,0.3,0.7,0.6,1,0.9&#10;&#9;&#9;&#9;c0.7,0.7,1.4,1.5,1.9,2.4c0.3,0.4,0.5,0.9,0.7,1.4c0.3,1,0.6,2.1,0.7,3.3c0.1,1.2,0,2.4-0.3,3.6c-0.1,0.5-0.3,1-0.5,1.5&#10;&#9;&#9;&#9;C229.1-108.7,228.9-108.3,228.8-108z" style="fill: rgb(53, 73, 94);"/>
		<path class="st1" d="M102.7-132.3c3.7-0.2,4.9-4,4.9-4c-0.3-5.1-3-4.5-3-4.5c4.5-1.6,7.1,3.6,4.1,8.1c-0.5,0.7-3.1,3.2-6.4,3.4&#10;&#9;&#9;&#9;c0.8,1.9,1.2,4,1.3,6c0,0,0,0,0.1,0c0,0,0-0.1,0.1-0.1c1.1-1.3,2.5-2.1,4.1-2.3c-0.3-4.4,2.3-8.3,5.5-10c1-0.5,2-0.9,3-1.1&#10;&#9;&#9;&#9;c-0.4-3.6-2.8-6.7-5.5-8.2c-5.8-3.2-13.2-0.7-14.1,5.1C95.9-134.6,99-132.2,102.7-132.3z M114.3-134.7c0.7-0.4,1.3-0.6,2-0.9&#10;&#9;&#9;&#9;c3.4-1.1,7.1-0.5,9.4,1.5c1.4,1.1,2.3,2.6,2.6,4.5c0.5,3.5-1,5.7-3.2,6.8c1,0.3,1.9,0.8,2.7,1.5c2.4,2.3,3.3,7.3-1.5,10.3&#10;&#9;&#9;&#9;c-1.9,1.2-4.2,1.4-6.2,0.8c0.2-1,0.3-2.1,0.3-3.4c1.6,0.4,2.9-0.6,3.3-0.9c2.4-2.1-0.2-0.4-2.3-0.8c-0.5-0.1-0.9-0.3-1.3-0.5&#10;&#9;&#9;&#9;c-0.2-1.3-0.6-2.6-1.2-4.1c0.1-0.2,0.1-0.4,0.2-0.6c0.3-0.7,0.8-1.3,1.3-1.7c-3-0.6-3.6-3.6-3.6-3.6c0-0.1,0-0.2,0-0.4&#10;&#9;&#9;&#9;c0.1-5,3.1-4.5,3.6-4.4c-1.2-0.4-2.3-0.3-3.2,0.2c-1.9,1.1-3,3.8-2.3,6.6c-0.3-0.2-0.6-0.4-0.9-0.6c-1.1-0.7-2.3-1.1-3.5-1.4&#10;&#9;&#9;&#9;c-0.6-0.1-1.2-0.2-1.8-0.2C108.9-129.7,111.4-133.1,114.3-134.7z M97.3-108.2c-0.1,0.1-0.1,0.1-0.2,0.2c-0.3,0.3-0.6,0.7-0.8,0.9&#10;&#9;&#9;&#9;c0,0,0-0.1-0.1-0.1c-2,1.7-4.4,2.9-7.1,3.1c-10.8,0.9-18.4-4.2-26.8-14.1c-8.5-9.9-25.4-1.4-25.4-1.4s16.9-12.7,28.7-3.3&#10;&#9;&#9;&#9;c11.8,9.4,19.1,15.3,25.9,10.6c8.5-5.9,2.6-13,1.4-13.9c-4.5-3.3-9.9-0.9-8.5,3.8c0,0-0.5-2.8,4.7-2.8c0,0,3.8,1.4,3.8,5.2&#10;&#9;&#9;&#9;c0,3.8-2.6,6.7-8,5.6c-5.9-1.2-8-8.8-4.5-14.6c2.6-4.2,8.9-7.2,15-3.5l0.1-0.1c0.1,0.2,0.3,0.3,0.4,0.5c0.7,0.5,1.4,1.1,2.1,1.8&#10;&#9;&#9;&#9;c0.4,0.3,0.9,0.5,1.3,0.7c0.4,0.6,0.8,1.5,1.2,2.8c0.3,1,0.6,2.2,0.7,3.7c0.1,1.4,0.2,3,0.1,4.9c-0.1,1.6-0.5,3.3-1.1,4.9&#10;&#9;&#9;&#9;c-0.2,0.4-0.3,0.8-0.5,1.2C99.1-110.8,98.3-109.4,97.3-108.2z M141.4-117.7c0,0-4.2,3.1-6.1,0.5c0,0-2.4-5.4,2.1-4.9&#10;&#9;&#9;&#9;c0,0-0.4-1.7-2.4-0.9c-2.4,0.9-1.4,6.8-0.7,7.8c0,0,1.3,4.3-2.8,8c-2.8,2.4-8.6,4.1-14.1,2.5c0.6-0.7,1.6-2,2.3-3.9&#10;&#9;&#9;&#9;c2.7,0.6,6.4,0.7,8.5-1.9c0,0,3.3-1.9,2.8-5.2c-0.5-3.3-0.5-3.1-1.2-4.5c-0.7-1.4-0.8-2.9,0.2-4.9c1.2-2.4,4.7-4.5,8.9-2.1&#10;&#9;&#9;&#9;C143.6-124.8,143-119.1,141.4-117.7z M118.1-108c-0.3,0.5-0.6,1.1-1.1,1.6c-0.3,0.4-0.6,0.7-0.9,1.1c0,0-0.1,0-0.1,0&#10;&#9;&#9;&#9;c-1.3,1.2-3.1,2.2-5.3,2.8c-6.1,1.7-10.6,0.5-13.5-3.2c0.4-0.2,0.8-0.5,1.2-0.9c1-0.9,2.1-2.1,2.9-3.9c3.1,2.8,7.7,1.7,8.6,1.3&#10;&#9;&#9;&#9;c1.7-0.8,2.8-2,3.4-3.3c0.6-1.2,0.6-2.5,0.2-3.6c-0.3-0.3-0.7-0.6-1-0.9c-0.1-0.1-0.1-0.1-0.2-0.2c0,0,0,0,0-0.1&#10;&#9;&#9;&#9;c0-0.1,0-0.2,0-0.3c-0.2-0.1-0.4-0.2-0.6-0.3c0,0-0.1,0-0.1-0.1c-0.3-0.2-0.7-0.3-1.1-0.4c0,0,2.3,0.8,0.7,4.5&#10;&#9;&#9;&#9;c-0.1,0.3-0.2,0.6-0.4,0.9c0,0-2.2,3.6-6.4,1.5c-0.9-0.5-1.6-1.1-2.1-1.8c0.2-0.6,0.3-1.2,0.4-1.9c0,0,0,0,0,0&#10;&#9;&#9;&#9;c0.3-1.7,0.7-4,0.8-6.5c1.2-1.4,2.8-2.1,4.5-2.3c0.3,0,0.6-0.1,0.9-0.1c2.1-0.1,4.3,0.7,6.2,2.1c0.4,0.3,0.7,0.6,1,0.9&#10;&#9;&#9;&#9;c0.7,0.7,1.4,1.5,1.9,2.4c0.3,0.4,0.5,0.9,0.7,1.4c0.3,1,0.6,2.1,0.7,3.3c0.1,1.2,0,2.4-0.3,3.6c-0.1,0.5-0.3,1-0.5,1.5&#10;&#9;&#9;&#9;C118.4-108.7,118.2-108.3,118.1-108z" style="fill: rgb(53, 73, 94);"/>
	</g>
</pattern><g transform="matrix(3.4950785636901855, 0, 0, 3.4950785636901855, -2056.669985799312, -90.97831562287453)"><g id="g-11" transform="matrix(1, 0, 0, 1, 0, 0)">
	<g id="g-12">
		<path class="st0" d="M652,46c27.6,0,50,22.4,50,50s-22.4,50-50,50s-50-22.4-50-50S624.4,46,652,46z" style="fill: rgb(252, 255, 242);"/>
	</g>
</g></g><g transform="matrix(3.5666050910949703, 2.0924398899078365, -2.0924398899078365, 3.5666050910949703, -370.3174112217034, -4087.760497486931)"><g id="g-3" transform="matrix(1, 0, 0, 1, 0, 0)">
	<g id="g-4">
		<g>
			<path class="st0" d="M654,884c-29.2,0-53-23.8-53-53s23.8-53,53-53s53,23.8,53,53S683.2,884,654,884z M654,784&#10;&#9;&#9;&#9;&#9;c-25.9,0-47,21.1-47,47s21.1,47,47,47s47-21.1,47-47S679.9,784,654,784z" style="fill: rgb(252, 255, 242);"/>
		</g>
	</g>
</g></g><g transform="matrix(3.9357861953190096, 2.29078683239224, -2.29078683239224, 3.9357861953190096, 1593.1281832584991, -5556.264129130306)"><g id="g-1" transform="matrix(1, 0, 0, 1, 0, 0)">
	<g id="g-2">
		<g>
			<path class="st0" d="M397.6,1301h-33.3c-6.4,0-14-4.5-17.3-10.2l-16.6-29c-3.2-5.7-3.2-14.5,0-20.1l16.7-28.8&#10;&#9;&#9;&#9;&#9;c3.2-5.6,10.8-9.9,17.3-9.9h33.3c6.5,0,14.1,4.3,17.3,9.9l16.6,28.8c3.2,5.6,3.2,14.5,0,20.1l-16.6,29&#10;&#9;&#9;&#9;&#9;C411.7,1296.5,404.1,1301,397.6,1301z M364.4,1209c-4.3,0-10,3.2-12.1,6.9l-16.6,28.8c-2.1,3.8-2.1,10.4,0,14.2l16.6,29&#10;&#9;&#9;&#9;&#9;c2.2,3.8,7.9,7.2,12.1,7.2h33.3c4.3,0,9.9-3.4,12.2-7.2l16.6-29c2.2-3.8,2.2-10.3,0-14.1l-16.6-28.8c-2.2-3.7-7.7-6.9-12.1-6.9&#10;&#9;&#9;&#9;&#9;H364.4z" style="fill: rgb(0, 70, 98);"/>
		</g>
	</g>
</g></g><path class="st1" d="M515,684.4c-0.2,0-0.4,0-0.6,0c-39.6,0.3-68.2,33.5-69.4,34.9l6.3,5.3c0.3-0.3,27.4-31.7,63.3-32&#10;&#9;&#9;&#9;c0.2,0,0.3,0,0.5,0c21.1,0,41.3,10.8,60,32.1l6.2-5.4C560.9,696.2,538.6,684.4,515,684.4z" style="fill: rgb(0, 70, 98);" transform="matrix(1.084296464920044, 0.014234194532036781, -0.014234194532036781, 1.084296464920044, -324.0856018066406, -384.4826354980469)"/><path class="st1" d="M509.3,612.7c-66,2.4-110.8,54.3-112.6,56.5l6.3,5.3c0.4-0.5,44.4-51.3,106.8-53.6&#10;&#9;&#9;&#9;c39.6-1.4,78.2,16.7,114.8,53.8l5.8-5.8C592,630.1,551.4,611.2,509.3,612.7z" style="fill: rgb(0, 70, 98);" transform="matrix(0.9835947751998902, 0, 0, 0.9835947751998902, -282.08099202080655, -284.2386469009937)"/><path class="st1" d="M509.3,612.7c-66,2.4-110.8,54.3-112.6,56.5l6.3,5.3c0.4-0.5,44.4-51.3,106.8-53.6&#10;&#9;&#9;&#9;c39.6-1.4,78.2,16.7,114.8,53.8l5.8-5.8C592,630.1,551.4,611.2,509.3,612.7z" style="fill: rgb(0, 70, 98);" transform="matrix(-0.9835832118988038, -0.006707983091473579, 0.006707983091473579, -0.9835832118988038, 723.9654790981208, 775.6999517318188)"/><path class="st1" d="M515,684.4c-0.2,0-0.4,0-0.6,0c-39.6,0.3-68.2,33.5-69.4,34.9l6.3,5.3c0.3-0.3,27.4-31.7,63.3-32&#10;&#9;&#9;&#9;c0.2,0,0.3,0,0.5,0c21.1,0,41.3,10.8,60,32.1l6.2-5.4C560.9,696.2,538.6,684.4,515,684.4z" style="fill: rgb(0, 70, 98);" transform="matrix(-1.0842771530151367, -0.015786468982696533, 0.015786468982696533, -1.0842771530151367, 769.6924688442143, 875.0629888411939)"/><path class="st1" d="M515,684.4c-0.2,0-0.4,0-0.6,0c-39.6,0.3-68.2,33.5-69.4,34.9l6.3,5.3c0.3-0.3,27.4-31.7,63.3-32&#10;&#9;&#9;&#9;c0.2,0,0.3,0,0.5,0c21.1,0,41.3,10.8,60,32.1l6.2-5.4C560.9,696.2,538.6,684.4,515,684.4z" style="fill: rgb(0, 70, 98);" transform="matrix(0.03825912997126579, 1.0837185382843018, -1.0837185382843018, 0.03825912997126579, 825.2492315395268, -334.0049738052906)"/><path class="st1" d="M515,684.4c-0.2,0-0.4,0-0.6,0c-39.6,0.3-68.2,33.5-69.4,34.9l6.3,5.3c0.3-0.3,27.4-31.7,63.3-32&#10;&#9;&#9;&#9;c0.2,0,0.3,0,0.5,0c21.1,0,41.3,10.8,60,32.1l6.2-5.4C560.9,696.2,538.6,684.4,515,684.4z" style="fill: rgb(0, 70, 98);" transform="matrix(-0.0025860566485193634, -1.0843963640630152, 1.0843963640630152, -0.0025860566485193634, -396.2389659611018, 805.294098204092)"/><path class="st1" d="M509.3,612.7c-66,2.4-110.8,54.3-112.6,56.5l6.3,5.3c0.4-0.5,44.4-51.3,106.8-53.6&#10;&#9;&#9;&#9;c39.6-1.4,78.2,16.7,114.8,53.8l5.8-5.8C592,630.1,551.4,611.2,509.3,612.7z" style="fill: rgb(0, 70, 98);" transform="matrix(1.2419899380319748, 0, 0, 1.2419899380319748, -414.01056683522336, -485.71162546218045)"/><path class="st1" d="M509.3,612.7c-66,2.4-110.8,54.3-112.6,56.5l6.3,5.3c0.4-0.5,44.4-51.3,106.8-53.6&#10;&#9;&#9;&#9;c39.6-1.4,78.2,16.7,114.8,53.8l5.8-5.8C592,630.1,551.4,611.2,509.3,612.7z" style="fill: rgb(0, 70, 98);" transform="matrix(-1.2338092624223125, 0.004953651815290453, -0.004953651815290453, -1.2338092624223125, 860.6679270330934, 968.6489783568248)"/><path class="st1" d="M509.3,612.7c-66,2.4-110.8,54.3-112.6,56.5l6.3,5.3c0.4-0.5,44.4-51.3,106.8-53.6&#10;&#9;&#9;&#9;c39.6-1.4,78.2,16.7,114.8,53.8l5.8-5.8C592,630.1,551.4,611.2,509.3,612.7z" style="fill: rgb(0, 70, 98);" transform="matrix(-0.010898360051214693, 0.8887892365455626, -0.8887892365455626, -0.010898360051214693, 686.2235107421875, -203.53407287597653)"/><path class="st1" d="M509.3,612.7c-66,2.4-110.8,54.3-112.6,56.5l6.3,5.3c0.4-0.5,44.4-51.3,106.8-53.6&#10;&#9;&#9;&#9;c39.6-1.4,78.2,16.7,114.8,53.8l5.8-5.8C592,630.1,551.4,611.2,509.3,612.7z" style="fill: rgb(0, 70, 98);" transform="matrix(0.0006857101894056363, -0.8929623603602211, 0.8929623603602211, 0.0006857101894056363, -235.629233418592, 701.9728828672628)"/><g transform="matrix(3.7018330097198486, 0, 0, 3.7018330097198486, -2196.64208984375, -2831.7265625)"><g id="g-7" transform="matrix(1, 0, 0, 1, 0, 0)">
	<g id="g-8">
		<g>
			<path class="st0" d="M654,884c-29.2,0-53-23.8-53-53s23.8-53,53-53s53,23.8,53,53S683.2,884,654,884z M654,784&#10;&#9;&#9;&#9;&#9;c-25.9,0-47,21.1-47,47s21.1,47,47,47s47-21.1,47-47S679.9,784,654,784z" style="fill: rgb(0, 70, 98);"/>
		</g>
	</g>
</g></g><path class="st1" d="M509.3,612.7c-66,2.4-110.8,54.3-112.6,56.5l6.3,5.3c0.4-0.5,44.4-51.3,106.8-53.6&#10;&#9;&#9;&#9;c39.6-1.4,78.2,16.7,114.8,53.8l5.8-5.8C592,630.1,551.4,611.2,509.3,612.7z" style="fill: rgb(0, 70, 98);" transform="matrix(-0.014261904172599314, 1.163097023963928, -1.163097023963928, -0.014261904172599314, 899.7163946254641, -343.23971501622805)"/><path class="st1" d="M509.3,612.7c-66,2.4-110.8,54.3-112.6,56.5l6.3,5.3c0.4-0.5,44.4-51.3,106.8-53.6&#10;&#9;&#9;&#9;c39.6-1.4,78.2,16.7,114.8,53.8l5.8-5.8C592,630.1,551.4,611.2,509.3,612.7z" style="fill: rgb(0, 70, 98);" transform="matrix(-0.002681442321685783, -1.1713772577925408, 1.1713772577925408, -0.002681442321685783, -449.2787621436704, 847.4730130958962)"/><g transform="matrix(0.46495088934898376, 0, 0, 0.46495088934898376, -80.68324574263568, 201.20320804544582)"><g id="g-15" transform="matrix(1, 0, 0, 1, 0, 0)">
	<g id="g-16">
		<path class="st0" d="M652,46c27.6,0,50,22.4,50,50s-22.4,50-50,50s-50-22.4-50-50S624.4,46,652,46z" style="fill: rgb(0, 70, 98);"/>
	</g>
</g></g></svg>