<?xml version="1.0" encoding="utf-8"?>
<svg id="master-artboard" viewBox="0 0 1400 980" version="1.1" xmlns="http://www.w3.org/2000/svg" x="0px" y="0px" style="enable-background:new 0 0 1400 980;" width="1400px" height="980px"><path fill="#F1F2F2" d="M1067.1,638.7l-28.4,18.3c-19.5-15-43.4-24.2-68.9-25.6l-9.5-32.4c-7.7,0.1-15.6,0.8-23.5,2.2&#10;&#9;&#9;&#9;c-7.9,1.3-15.5,3.2-22.9,5.7l1.7,33.8c-23.6,9.7-43.1,26.3-56.6,46.9l-32.8-8c-7.6,13.7-13.2,28.5-16.4,44l30,15.4&#10;&#9;&#9;&#9;c-1.6,12.1-1.5,24.6,0.7,37.2c2.1,12.6,6.1,24.5,11.6,35.3l-23.3,24.5c8.2,13.6,18.3,25.8,30,36.2l28.4-18.3&#10;&#9;&#9;&#9;c19.5,15,43.5,24.2,68.9,25.6l9.5,32.4c7.8-0.1,15.6-0.9,23.5-2.2c7.9-1.3,15.5-3.2,22.9-5.7l-1.7-33.8&#10;&#9;&#9;&#9;c23.6-9.7,43.1-26.3,56.6-46.9l32.8,8c7.6-13.7,13.2-28.5,16.4-44l-30-15.4c1.6-12.1,1.5-24.6-0.7-37.2&#10;&#9;&#9;&#9;c-2.1-12.6-6.1-24.5-11.6-35.3l23.3-24.5C1089,661.2,1078.8,649.1,1067.1,638.7z M1040.3,742.3c7.2,42.7-21.5,83.2-64.2,90.4&#10;&#9;&#9;&#9;c-42.7,7.2-83.1-21.5-90.4-64.2c-7.2-42.7,21.5-83.1,64.2-90.4C992.6,670.9,1033,699.6,1040.3,742.3z" transform="matrix(1, 0, 0, 1, -0.6101175535706034, 1.1071051109433085)"/><path d="M965.7,914.3c-1.1,0-2.1-0.7-2.4-1.8l-9.1-30.8c-24.4-1.7-47.5-10.3-67.1-25l-26.9,17.4c-0.9,0.6-2.2,0.5-3-0.2&#10;&#9;&#9;&#9;c-12-10.6-22.2-23-30.5-36.7c-0.6-1-0.4-2.2,0.3-3l22.1-23.2c-5.3-10.8-9-22.4-11.1-34.5c-2-12-2.3-24.2-0.9-36.2l-28.5-14.6&#10;&#9;&#9;&#9;c-1-0.5-1.5-1.6-1.3-2.7c3.3-15.7,8.9-30.7,16.7-44.7c0.5-1,1.7-1.5,2.8-1.2l31.1,7.5c13.7-20.3,32.7-36.1,55.2-45.7l-1.6-32&#10;&#9;&#9;&#9;c-0.1-1.1,0.6-2.1,1.7-2.5c7.5-2.5,15.3-4.4,23.2-5.7c7.9-1.3,15.9-2.1,23.8-2.2c1.2-0.1,2.1,0.7,2.4,1.8l9.1,30.8&#10;&#9;&#9;&#9;c24.4,1.7,47.5,10.3,67.1,24.9l26.9-17.4c0.9-0.6,2.2-0.5,3,0.2c12,10.7,22.2,23,30.5,36.8c0.6,1,0.4,2.2-0.3,3l-22.1,23.2&#10;&#9;&#9;&#9;c5.3,10.8,9,22.4,11.1,34.5c2,12,2.3,24.2,0.9,36.2l28.5,14.6c1,0.5,1.5,1.6,1.3,2.7c-3.3,15.7-8.9,30.7-16.7,44.7&#10;&#9;&#9;&#9;c-0.5,1-1.7,1.4-2.8,1.2l-31.1-7.5c-13.7,20.3-32.7,36.1-55.2,45.7l1.6,32c0.1,1.1-0.6,2.1-1.7,2.5c-7.6,2.5-15.4,4.4-23.2,5.7&#10;&#9;&#9;&#9;C981.6,913.5,973.6,914.2,965.7,914.3C965.7,914.3,965.7,914.3,965.7,914.3z M887.2,851.3c0.5,0,1.1,0.2,1.5,0.5&#10;&#9;&#9;&#9;c19.6,15.1,42.9,23.8,67.5,25.1c1.1,0.1,2,0.8,2.3,1.8l9,30.6c7-0.2,14.2-0.9,21.2-2.1c7-1.2,13.9-2.9,20.7-5l-1.6-31.9&#10;&#9;&#9;&#9;c-0.1-1.1,0.6-2,1.5-2.4c22.8-9.4,42-25.3,55.5-46c0.6-0.9,1.6-1.3,2.7-1.1l31,7.5c6.8-12.5,11.8-25.9,14.8-39.8l-28.4-14.5&#10;&#9;&#9;&#9;c-0.9-0.5-1.5-1.5-1.3-2.6c1.6-12.1,1.4-24.3-0.7-36.5c-2.1-12.1-5.9-23.8-11.4-34.6c-0.5-0.9-0.3-2.1,0.4-2.8l22-23.1&#10;&#9;&#9;&#9;c-7.5-12.1-16.6-23.1-27.1-32.7l-26.8,17.3c-0.9,0.6-2,0.5-2.9-0.1c-19.6-15.1-42.9-23.8-67.5-25.1c-1.1-0.1-2-0.8-2.3-1.8&#10;&#9;&#9;&#9;l-9-30.6c-7.1,0.2-14.2,0.9-21.2,2.1c-7,1.2-14,2.9-20.7,5l1.6,31.9c0.1,1.1-0.6,2-1.5,2.4c-22.8,9.4-42,25.2-55.5,45.9&#10;&#9;&#9;&#9;c-0.6,0.9-1.6,1.3-2.7,1.1l-31-7.5c-6.8,12.6-11.8,25.9-14.8,39.8l28.3,14.5c0.9,0.5,1.5,1.5,1.3,2.6c-1.6,12-1.4,24.3,0.7,36.5&#10;&#9;&#9;&#9;c2.1,12.1,5.9,23.8,11.4,34.6c0.5,0.9,0.3,2.1-0.4,2.8l-22,23.1c7.5,12.1,16.6,23.1,27.1,32.7l26.8-17.3&#10;&#9;&#9;&#9;C886.3,851.4,886.7,851.3,887.2,851.3z M962.9,836.3c-39.5,0-73-28.3-79.6-67.4c-3.6-21.3,1.3-42.7,13.8-60.3&#10;&#9;&#9;&#9;c12.5-17.6,31.1-29.3,52.4-32.9c4.5-0.8,9.1-1.1,13.6-1.1c39.5,0,73,28.3,79.6,67.4c3.6,21.3-1.3,42.7-13.8,60.3&#10;&#9;&#9;&#9;c-12.5,17.6-31.1,29.3-52.4,32.9C972,835.9,967.4,836.3,962.9,836.3z M963.1,679.5c-4.3,0-8.5,0.4-12.8,1.1&#10;&#9;&#9;&#9;c-20,3.4-37.5,14.4-49.2,30.9c-11.7,16.5-16.3,36.6-13,56.6c6.2,36.6,37.6,63.2,74.7,63.2c4.3,0,8.5-0.4,12.8-1.1&#10;&#9;&#9;&#9;c20-3.4,37.5-14.3,49.2-30.9c11.7-16.5,16.3-36.6,12.9-56.6C1031.6,706.1,1000.2,679.5,963.1,679.5z" transform="matrix(1, 0, 0, 1, -0.6101175535706034, 1.1071051109433085)"/><g transform="matrix(1, 0, 0, 1, -0.6101175546647255, 1.1071051359176636)">
			<path fill="#FFFFFF" d="M1072.8,197.3H327.2c-14.6,0-26.5,11.9-26.5,26.5v434.7h798.6V223.8&#10;&#9;&#9;&#9;&#9;C1099.3,209.2,1087.4,197.3,1072.8,197.3z"/>
			<path d="M1099.3,661H300.7c-1.4,0-2.5-1.1-2.5-2.5V223.8c0-16,13-29,29-29h745.6c16,0,29,13,29,29v434.7&#10;&#9;&#9;&#9;&#9;C1101.8,659.9,1100.7,661,1099.3,661z M303.2,656h793.6V223.8c0-13.3-10.8-24-24-24H327.2c-13.3,0-24,10.8-24,24V656z"/>
		</g><path fill="#BCBEC0" d="M300.7,714.5c0,14.6,11.9,26.5,26.5,26.5h745.6c14.6,0,26.5-11.9,26.5-26.5v-56H300.7V714.5z" transform="matrix(1, 0, 0, 1, -0.6101175535706034, 1.1071051109433085)"/><path d="M1072.8,743.5H327.2c-16,0-29-13-29-29v-56c0-1.4,1.1-2.5,2.5-2.5h798.6c1.4,0,2.5,1.1,2.5,2.5v56&#10;&#9;&#9;&#9;&#9;C1101.8,730.5,1088.8,743.5,1072.8,743.5z M303.2,661v53.5c0,13.3,10.8,24,24,24h745.6c13.3,0,24-10.8,24-24V661H303.2z" transform="matrix(1, 0, 0, 1, -0.6101175535706034, 1.1071051109433085)"/><path d="M1063.9,625.6H336.1c-1.4,0-2.5-1.1-2.5-2.5V232.6c0-1.4,1.1-2.5,2.5-2.5h727.9c1.4,0,2.5,1.1,2.5,2.5v390.5&#10;&#9;&#9;&#9;C1066.4,624.5,1065.3,625.6,1063.9,625.6z M338.6,620.6h722.9V235.1H338.6V620.6z" transform="matrix(1, 0, 0, 1, -0.6101175535706034, 1.1071051109433085)"/><path fill="#FF7A73" d="M725.5,699.7c0,14.1-11.4,25.5-25.5,25.5c-14.1,0-25.5-11.4-25.5-25.5c0-14.1,11.4-25.5,25.5-25.5&#10;&#9;&#9;&#9;C714.1,674.2,725.5,685.6,725.5,699.7z" transform="matrix(1, 0, 0, 1, -0.6101175535706034, 1.1071051109433085)"/><path d="M700,727.8c-15.5,0-28-12.6-28-28c0-15.5,12.6-28,28-28c15.5,0,28,12.6,28,28C728,715.2,715.5,727.8,700,727.8z&#10;&#9;&#9;&#9; M700,676.7c-12.7,0-23,10.3-23,23s10.3,23,23,23c12.7,0,23.1-10.3,23.1-23S712.7,676.7,700,676.7z" transform="matrix(1, 0, 0, 1, -0.6101175535706034, 1.1071051109433085)"/><path d="M820.3,702.2h-66.8c-1.4,0-2.5-1.1-2.5-2.5c0-1.4,1.1-2.5,2.5-2.5h66.8c1.4,0,2.5,1.1,2.5,2.5&#10;&#9;&#9;&#9;C822.8,701.1,821.7,702.2,820.3,702.2z" transform="matrix(1, 0, 0, 1, -0.6101175535706034, 1.1071051109433085)"/><path d="M646.5,702.2h-66.8c-1.4,0-2.5-1.1-2.5-2.5c0-1.4,1.1-2.5,2.5-2.5h66.8c1.4,0,2.5,1.1,2.5,2.5&#10;&#9;&#9;&#9;C649,701.1,647.8,702.2,646.5,702.2z" transform="matrix(1, 0, 0, 1, -0.6101175535706034, 1.1071051109433085)"/><path d="M 654.799988 741 H 745.099991 V 869 H 654.799988 V 741 Z" fill="#A2A4A6" transform="matrix(1, 0, 0, 1, -0.6101175535706034, 1.1071051109433085)"/><path d="M745.2,871.4h-90.3c-1.4,0-2.5-1.1-2.5-2.5V741c0-1.4,1.1-2.5,2.5-2.5h90.3c1.4,0,2.5,1.1,2.5,2.5v128&#10;&#9;&#9;&#9;C747.6,870.3,746.5,871.4,745.2,871.4z M657.3,866.5h85.3v-123h-85.3V866.5z" transform="matrix(1, 0, 0, 1, -0.6101175535706034, 1.1071051109433085)"/><path fill="#FFFFFF" d="M818.3,909.3c-0.8-32.3-27.2-58.3-59.7-58.3H641.4c-32.5,0-58.9,26-59.7,58.3H818.3z" transform="matrix(1, 0, 0, 1, -0.6101175535706034, 1.1071051109433085)"/><path d="M818.3,911.7H581.7c-0.7,0-1.3-0.3-1.8-0.8c-0.5-0.5-0.7-1.1-0.7-1.8c0.9-34.1,28.2-60.7,62.2-60.7h117.2&#10;&#9;&#9;&#9;c34,0,61.4,26.7,62.2,60.7c0,0.7-0.2,1.3-0.7,1.8C819.6,911.5,819,911.7,818.3,911.7z M584.3,906.8h231.4&#10;&#9;&#9;&#9;c-2.1-30.1-26.7-53.3-57.1-53.3H641.4C611,853.5,586.3,876.7,584.3,906.8z" transform="matrix(1, 0, 0, 1, -0.6101175535706034, 1.1071051109433085)"/><path d="M565,151.7H338.2c-15.1,0-27.4-12.3-27.4-27.4V77c0-15.1,12.3-27.4,27.4-27.4H565c15.1,0,27.4,12.3,27.4,27.4v47.3&#10;&#9;&#9;&#9;C592.4,139.4,580.1,151.7,565,151.7z M338.2,54.6c-12.4,0-22.4,10.1-22.4,22.4v47.3c0,12.4,10.1,22.4,22.4,22.4H565&#10;&#9;&#9;&#9;c12.4,0,22.4-10.1,22.4-22.4V77c0-12.4-10.1-22.4-22.4-22.4H338.2z" transform="matrix(0.9999999999999999, 0, 0, 0.9999999999999999, -168.1018490128048, 85.43861107479678)"/><path d="M 873.5 56.5 L 832.4000244140625 132.5 L 791.2999877929688 56.5 Z" fill="#FFFFFF" transform="matrix(0.9999918937683105, -0.004021459724754094, 0.004021459724754094, 0.9999918937683105, -441.8971353758362, 691.8509939659236)"/><path d="M832.4,135L832.4,135c-0.9,0-1.8-0.5-2.2-1.3l-41.1-76.1c-0.4-0.8-0.4-1.7,0-2.5c0.5-0.8,1.3-1.2,2.1-1.2h82.2&#10;&#9;&#9;&#9;c0.9,0,1.7,0.5,2.1,1.2c0.4,0.8,0.5,1.7,0,2.5l-41.1,76.1C834.2,134.5,833.3,135,832.4,135z M795.5,58.9l36.9,68.3l36.9-68.3&#10;&#9;&#9;&#9;H795.5z" transform="matrix(0.9999918937683105, -0.004021459724754094, 0.004021459724754094, 0.9999918937683105, -441.8971353758362, 691.8509939659236)"/><path d="M 990.4000244140625 56.5 L 949.2999877929688 132.5 L 908.2000122070312 56.5 Z" fill="#F1F2F2" transform="matrix(0.9999918937683105, -0.004021459724754094, 0.004021459724754094, 0.9999918937683105, -441.8971353758362, 691.8509939659236)"/><path d="M949.3,135L949.3,135c-0.9,0-1.8-0.5-2.2-1.3l-41.1-76.1c-0.4-0.8-0.4-1.7,0-2.5c0.5-0.8,1.3-1.2,2.1-1.2h82.2&#10;&#9;&#9;&#9;c0.9,0,1.7,0.5,2.1,1.2c0.4,0.8,0.5,1.7,0,2.5l-41.1,76.1C951.1,134.5,950.2,135,949.3,135z M912.4,58.9l36.9,68.3l36.9-68.3&#10;&#9;&#9;&#9;H912.4z" transform="matrix(0.9999918937683105, -0.004021459724754094, 0.004021459724754094, 0.9999918937683105, -441.8971353758362, 691.8509939659236)"/><path fill="#FFFFFF" d="M565,52.1H338.2c-13.7,0-24.9,11.2-24.9,24.9v47.3c0,13.7,11.2,24.9,24.9,24.9h185.7l66.1,31.9v-56.8&#10;&#9;&#9;&#9;v-10.9V77C589.9,63.3,578.7,52.1,565,52.1z" transform="matrix(0.9999999999999999, 0, 0, 0.9999999999999999, -168.1018490128048, 85.43861107479678)"/><path d="M589.9,183.6c-0.4,0-0.7-0.1-1.1-0.2l-65.5-31.7H338.2c-15.1,0-27.4-12.3-27.4-27.4V77c0-15.1,12.3-27.4,27.4-27.4H565&#10;&#9;&#9;&#9;c15.1,0,27.4,12.3,27.4,27.4v104.1c0,0.9-0.4,1.7-1.2,2.1C590.9,183.5,590.4,183.6,589.9,183.6z M338.2,54.6&#10;&#9;&#9;&#9;c-12.4,0-22.4,10.1-22.4,22.4v47.3c0,12.4,10.1,22.4,22.4,22.4h185.7c0.4,0,0.7,0.1,1.1,0.2l62.5,30.2V77&#10;&#9;&#9;&#9;c0-12.4-10.1-22.4-22.4-22.4H338.2z" transform="matrix(0.9999999999999999, 0, 0, 0.9999999999999999, -168.1018490128048, 85.43861107479678)"/><g transform="matrix(0.9999999999999999, 0, 0, 0.9999999999999999, -168.1018490128048, 85.43861107479678)">
			<path d="M357.8,133.1c-1.4,0-2.5-1.1-2.5-2.5v-60c0-1.4,1.1-2.5,2.5-2.5c1.4,0,2.5,1.1,2.5,2.5v60&#10;&#9;&#9;&#9;&#9;C360.3,132,359.2,133.1,357.8,133.1z"/>
		</g><path d="M385,133.1c-1.4,0-2.5-1.1-2.5-2.5v-60c0-1.4,1.1-2.5,2.5-2.5c1.4,0,2.5,1.1,2.5,2.5v60C387.5,132,386.4,133.1,385,133.1&#10;&#9;&#9;&#9;&#9;z" transform="matrix(0.9999999999999999, 0, 0, 0.9999999999999999, -168.1018490128048, 85.43861107479678)"/><path d="M401.4,89.6h-60c-1.4,0-2.5-1.1-2.5-2.5c0-1.4,1.1-2.5,2.5-2.5h60c1.4,0,2.5,1.1,2.5,2.5&#10;&#9;&#9;&#9;&#9;C403.9,88.5,402.8,89.6,401.4,89.6z" transform="matrix(0.9999999999999999, 0, 0, 0.9999999999999999, -168.1018490128048, 85.43861107479678)"/><path d="M401.4,116.7h-60c-1.4,0-2.5-1.1-2.5-2.5s1.1-2.5,2.5-2.5h60c1.4,0,2.5,1.1,2.5,2.5S402.8,116.7,401.4,116.7z" transform="matrix(0.9999999999999999, 0, 0, 0.9999999999999999, -168.1018490128048, 85.43861107479678)"/><g transform="matrix(0.9999999999999999, 0, 0, 0.9999999999999999, -168.1018490128048, 85.43861107479678)">
			<path d="M438,133.1c-1.4,0-2.5-1.1-2.5-2.5v-60c0-1.4,1.1-2.5,2.5-2.5c1.4,0,2.5,1.1,2.5,2.5v60C440.5,132,439.4,133.1,438,133.1&#10;&#9;&#9;&#9;&#9;z"/>
		</g><path d="M465.2,133.1c-1.4,0-2.5-1.1-2.5-2.5v-60c0-1.4,1.1-2.5,2.5-2.5c1.4,0,2.5,1.1,2.5,2.5v60&#10;&#9;&#9;&#9;&#9;C467.7,132,466.5,133.1,465.2,133.1z" transform="matrix(0.9999999999999999, 0, 0, 0.9999999999999999, -168.1018490128048, 85.43861107479678)"/><path d="M481.6,89.6h-60c-1.4,0-2.5-1.1-2.5-2.5c0-1.4,1.1-2.5,2.5-2.5h60c1.4,0,2.5,1.1,2.5,2.5&#10;&#9;&#9;&#9;&#9;C484.1,88.5,482.9,89.6,481.6,89.6z" transform="matrix(0.9999999999999999, 0, 0, 0.9999999999999999, -168.1018490128048, 85.43861107479678)"/><path d="M481.6,116.7h-60c-1.4,0-2.5-1.1-2.5-2.5s1.1-2.5,2.5-2.5h60c1.4,0,2.5,1.1,2.5,2.5S482.9,116.7,481.6,116.7z" transform="matrix(0.9999999999999999, 0, 0, 0.9999999999999999, -168.1018490128048, 85.43861107479678)"/><g transform="matrix(0.9999999999999999, 0, 0, 0.9999999999999999, -168.1018490128048, 85.43861107479678)">
			<path d="M518.2,133.1c-1.4,0-2.5-1.1-2.5-2.5v-60c0-1.4,1.1-2.5,2.5-2.5c1.4,0,2.5,1.1,2.5,2.5v60&#10;&#9;&#9;&#9;&#9;C520.7,132,519.6,133.1,518.2,133.1z"/>
		</g><path d="M545.3,133.1c-1.4,0-2.5-1.1-2.5-2.5v-60c0-1.4,1.1-2.5,2.5-2.5c1.4,0,2.5,1.1,2.5,2.5v60&#10;&#9;&#9;&#9;&#9;C547.8,132,546.7,133.1,545.3,133.1z" transform="matrix(0.9999999999999999, 0, 0, 0.9999999999999999, -168.1018490128048, 85.43861107479678)"/><path d="M561.8,89.6h-60c-1.4,0-2.5-1.1-2.5-2.5c0-1.4,1.1-2.5,2.5-2.5h60c1.4,0,2.5,1.1,2.5,2.5&#10;&#9;&#9;&#9;&#9;C564.3,88.5,563.1,89.6,561.8,89.6z" transform="matrix(0.9999999999999999, 0, 0, 0.9999999999999999, -168.1018490128048, 85.43861107479678)"/><path d="M561.8,116.7h-60c-1.4,0-2.5-1.1-2.5-2.5s1.1-2.5,2.5-2.5h60c1.4,0,2.5,1.1,2.5,2.5S563.1,116.7,561.8,116.7z" transform="matrix(0.9999999999999999, 0, 0, 0.9999999999999999, -168.1018490128048, 85.43861107479678)"/><path d="M581.7,911.7h-101c-1.4,0-2.5-1.1-2.5-2.5c0-1.4,1.1-2.5,2.5-2.5h101c1.4,0,2.5,1.1,2.5,2.5&#10;&#9;&#9;&#9;C584.2,910.6,583,911.7,581.7,911.7z" transform="matrix(1, 0, 0, 1, -0.6101175535706034, 1.1071051109433085)"/><path d="M545.3,800.3h-85.4c-1.4,0-2.5-1.1-2.5-2.5s1.1-2.5,2.5-2.5h85.4c1.4,0,2.5,1.1,2.5,2.5S546.7,800.3,545.3,800.3z" transform="matrix(1, 0, 0, 1, -57.18027746567998, 46.03046402817964)"/><path d="M 495.600006 287.799988 H 725.5 V 334.199989 H 495.600006 V 287.799988 Z" fill="#EBC470" transform="matrix(1, 0, 0, 1, -0.6101175535706034, 1.1071051109433085)"/><path d="M 755.900024 287.799988 H 803.100025 V 334.199989 H 755.900024 V 287.799988 Z" fill="#EBC470" transform="matrix(1, 0, 0, 1, -0.6101175535706034, 1.1071051109433085)"/><path d="M 366.200012 519.900024 H 413.400013 V 566.300026 H 366.200012 V 519.900024 Z" fill="#EBC470" transform="matrix(1.0557862520217893, 0, 0, 1.0557862520217893, 599.8099763147104, -185.47305078611532)"/><path d="M 629.200012 370.399994 H 1028 V 416.799995 H 629.200012 V 370.399994 Z" fill="#EBC470" transform="matrix(1, 0, 0, 1, -43.427286937216536, 195.21160888671875)"/><path d="M 338.799988 437.100006 H 546.999985 V 483.500008 H 338.799988 V 437.100006 Z" fill="#EBC470" transform="matrix(1, 0, 0, 1, 3.671599482701822, -165.87985932137997)"/><path d="M 450.600006 519.799988 H 849.399994 V 566.199989 H 450.600006 V 519.799988 Z" fill="#EBC470" transform="matrix(1, 0, 0, 1, -0.6101175535706034, 1.1071051109433085)"/><path fill="#FF7A73" d="M1009.9,171.9H813.3c-15.3,0-27.8,12.4-27.8,27.8v108.7c0,15.3,12.4,27.8,27.8,27.8h68.9l29.4,50.9&#10;&#9;&#9;&#9;l29.4-50.9h68.9c15.3,0,27.8-12.4,27.8-27.8V199.7C1037.7,184.4,1025.3,171.9,1009.9,171.9z" transform="matrix(0.9999999999999999, 0, 0, 0.9999999999999999, 46.531514679277905, -141.28936157489767)"/><path d="M911.6,389.6L911.6,389.6c-0.9,0-1.7-0.5-2.2-1.2l-28.7-49.7h-67.4c-16.7,0-30.3-13.6-30.3-30.2V199.7&#10;&#9;&#9;&#9;c0-16.7,13.6-30.3,30.3-30.3h196.6c16.7,0,30.2,13.6,30.2,30.3v108.7c0,16.7-13.6,30.2-30.2,30.2h-67.4l-28.7,49.7&#10;&#9;&#9;&#9;C913.3,389.1,912.5,389.6,911.6,389.6z M813.3,174.4c-13.9,0-25.3,11.3-25.3,25.3v108.7c0,13.9,11.3,25.3,25.3,25.3h68.9&#10;&#9;&#9;&#9;c0.9,0,1.7,0.5,2.2,1.2l27.2,47.2l27.3-47.2c0.4-0.8,1.3-1.2,2.2-1.2h68.9c13.9,0,25.3-11.3,25.3-25.3V199.7&#10;&#9;&#9;&#9;c0-13.9-11.3-25.3-25.3-25.3H813.3z" transform="matrix(0.9999999999999999, 0, 0, 0.9999999999999999, 46.37263253816457, -141.13050232196798)"/><path fill="#FFFFFF" d="M895.7,253.9c0,8.8,7.2,16,16,16c8.8,0,16-7.2,16-16c0-8.8-7.1-16-16-16&#10;&#9;&#9;&#9;C902.8,237.9,895.7,245.1,895.7,253.9z" transform="matrix(1, 0, 0, 1, -0.6101175535706034, 1.1071051109433085)"/><path fill="#FFFFFF" d="M817.5,253.9c0,8.8,7.2,16,16,16c8.8,0,16-7.2,16-16c0-8.8-7.2-16-16-16&#10;&#9;&#9;&#9;C824.6,237.9,817.5,245.1,817.5,253.9z" transform="matrix(1, 0, 0, 1, -0.6101175535706034, 1.1071051109433085)"/><path d="M545.3,800.3h-85.4c-1.4,0-2.5-1.1-2.5-2.5s1.1-2.5,2.5-2.5h85.4c1.4,0,2.5,1.1,2.5,2.5S546.7,800.3,545.3,800.3z" transform="matrix(1.332763671875, 0, 0, 1.332763671875, -308.1296793211487, -178.51756682509185)"/><path fill="#FFFFFF" d="M637,210.4c0,8.1-6.5,14.6-14.6,14.6c-8.1,0-14.6-6.5-14.6-14.6c0-8.1,6.6-14.6,14.6-14.6&#10;&#9;&#9;&#9;&#9;&#9;C630.5,195.8,637,202.4,637,210.4z" transform="matrix(0.6487268805503845, 0, 0, 0.6487268805503845, 114.08558054200209, 176.56930769035046)"/><path fill="#FFFFFF" d="M637,210.4c0,8.1-6.5,14.6-14.6,14.6c-8.1,0-14.6-6.5-14.6-14.6c0-8.1,6.6-14.6,14.6-14.6&#10;&#9;&#9;&#9;&#9;&#9;C630.5,195.8,637,202.4,637,210.4z" transform="matrix(0.6487270593643188, 0, 0, 0.6487270593643188, 598.809191791913, 260.6832604729494)"/><path fill="#FFFFFF" d="M637,210.4c0,8.1-6.5,14.6-14.6,14.6c-8.1,0-14.6-6.5-14.6-14.6c0-8.1,6.6-14.6,14.6-14.6&#10;&#9;&#9;&#9;&#9;&#9;C630.5,195.8,637,202.4,637,210.4z" transform="matrix(0.6487271189689636, 0, 0, 0.6487271189689636, 251.35324907184966, 258.9588952385744)"/><path fill="#FFFFFF" d="M637,210.4c0,8.1-6.5,14.6-14.6,14.6c-8.1,0-14.6-6.5-14.6-14.6c0-8.1,6.6-14.6,14.6-14.6&#10;&#9;&#9;&#9;&#9;&#9;C630.5,195.8,637,202.4,637,210.4z" transform="matrix(0.6487271189689636, 0, 0, 0.6487271189689636, 72.02118947950996, 408.1148785141988)"/><path fill="#FFFFFF" d="M637,210.4c0,8.1-6.5,14.6-14.6,14.6c-8.1,0-14.6-6.5-14.6-14.6c0-8.1,6.6-14.6,14.6-14.6&#10;&#9;&#9;&#9;&#9;&#9;C630.5,195.8,637,202.4,637,210.4z" transform="matrix(0.6487271189689636, 0, 0, 0.6487271189689636, 421.2014042449964, 408.9770730225501)"/><path fill="#FFFFFF" d="M637,210.4c0,8.1-6.5,14.6-14.6,14.6c-8.1,0-14.6-6.5-14.6-14.6c0-8.1,6.6-14.6,14.6-14.6&#10;&#9;&#9;&#9;&#9;&#9;C630.5,195.8,637,202.4,637,210.4z" transform="matrix(0.6487272381782532, 0, 0, 0.6487272381782532, 298.7727966308594, 177.05241118167032)"/><path fill="#FFFFFF" d="M637,210.4c0,8.1-6.5,14.6-14.6,14.6c-8.1,0-14.6-6.5-14.6-14.6c0-8.1,6.6-14.6,14.6-14.6&#10;&#9;&#9;&#9;&#9;&#9;C630.5,195.8,637,202.4,637,210.4z" transform="matrix(0.6487271189689636, 0, 0, 0.6487271189689636, 114.26769116428827, 327.9327608142115)"/><path fill="#FFFFFF" d="M637,210.4c0,8.1-6.5,14.6-14.6,14.6c-8.1,0-14.6-6.5-14.6-14.6c0-8.1,6.6-14.6,14.6-14.6&#10;&#9;&#9;&#9;&#9;&#9;C630.5,195.8,637,202.4,637,210.4z" transform="matrix(0.6487271189689636, 0, 0, 0.6487271189689636, -15.058328782377174, 409.8392340326485)"/><path fill="#FFFFFF" d="M637,210.4c0,8.1-6.5,14.6-14.6,14.6c-8.1,0-14.6-6.5-14.6-14.6c0-8.1,6.6-14.6,14.6-14.6&#10;&#9;&#9;&#9;&#9;&#9;C630.5,195.8,637,202.4,637,210.4z" transform="matrix(0.6487271189689636, 0, 0, 0.6487271189689636, 376.3683917711041, 177.0524258062484)"/><path d="M 495.600006 287.799988 H 725.5 V 334.199989 H 495.600006 V 287.799988 Z" fill="#EBC470" transform="matrix(0.8762262463569642, 0, 0, 0.8762262463569642, 280.0333334715906, 196.22941865231405)"/><path fill="#FFFFFF" d="M637,210.4c0,8.1-6.5,14.6-14.6,14.6c-8.1,0-14.6-6.5-14.6-14.6c0-8.1,6.6-14.6,14.6-14.6&#10;&#9;&#9;&#9;&#9;&#9;C630.5,195.8,637,202.4,637,210.4z" transform="matrix(0.6487273573875427, 0, 0, 0.6487273573875427, 335.8461177251837, 333.10576743160095)"/><path fill="#FFFFFF" d="M637,210.4c0,8.1-6.5,14.6-14.6,14.6c-8.1,0-14.6-6.5-14.6-14.6c0-8.1,6.6-14.6,14.6-14.6&#10;&#9;&#9;&#9;&#9;&#9;C630.5,195.8,637,202.4,637,210.4z" transform="matrix(0.6487273573875427, 0, 0, 0.6487273573875427, 486.7264525619216, 333.9679270020522)"/><g transform="matrix(0.6724980473518372, 0, 0, 0.6724980473518372, 368.8201997033823, 132.56156533316033)">
			<path d="M 586.799988 245 H 964.099976 V 630.700012 H 586.799988 V 245 Z" fill="#FFFFFF"/>
			<path d="M964.1,633.8H586.8c-1.7,0-3.1-1.4-3.1-3.1V245c0-1.7,1.4-3.1,3.1-3.1h377.3c1.7,0,3.1,1.4,3.1,3.1v385.7&#10;&#9;&#9;&#9;&#9;C967.2,632.4,965.8,633.8,964.1,633.8z M589.9,627.5h371V248.1h-371V627.5z"/>
		</g><path d="M 698.599976 520.099976 H 851.699982 V 578.099976 H 698.599976 V 520.099976 Z" fill="#FF926B" transform="matrix(0.6724980473518372, 0, 0, 0.6724980473518372, 368.8201997033823, 132.56156533316033)"/><path d="M851.7,581.2H698.6c-1.7,0-3.1-1.4-3.1-3.1v-58c0-1.7,1.4-3.1,3.1-3.1h153.1c1.7,0,3.1,1.4,3.1,3.1v58&#10;&#9;&#9;&#9;&#9;C854.9,579.8,853.5,581.2,851.7,581.2z M701.8,575h146.8v-51.7H701.8V575z" transform="matrix(0.6724980473518372, 0, 0, 0.6724980473518372, 368.8201997033823, 132.56156533316033)"/><path d="M 787.5 307 H 846 V 351.599998 H 787.5 V 307 Z" fill="#F1F2F2" transform="matrix(0.6724980473518372, 0, 0, 0.6724980473518372, 368.8201997033823, 132.56156533316033)"/><path d="M846.1,354.8h-58.5c-1.7,0-3.1-1.4-3.1-3.1V307c0-1.7,1.4-3.1,3.1-3.1h58.5c1.7,0,3.1,1.4,3.1,3.1v44.6&#10;&#9;&#9;&#9;&#9;&#9;C849.2,353.4,847.8,354.8,846.1,354.8z M790.7,348.5h52.2v-38.3h-52.2V348.5z" transform="matrix(0.6724980473518372, 0, 0, 0.6724980473518372, 368.8201997033823, 132.56156533316033)"/><path d="M 870.299988 307 H 928.799988 V 351.599998 H 870.299988 V 307 Z" fill="#F1F2F2" transform="matrix(0.6724980473518372, 0, 0, 0.6724980473518372, 368.8201997033823, 132.56156533316033)"/><path d="M928.8,354.8h-58.5c-1.7,0-3.1-1.4-3.1-3.1V307c0-1.7,1.4-3.1,3.1-3.1h58.5c1.7,0,3.1,1.4,3.1,3.1v44.6&#10;&#9;&#9;&#9;&#9;&#9;C932,353.4,930.5,354.8,928.8,354.8z M873.4,348.5h52.3v-38.3h-52.3V348.5z" transform="matrix(0.6724980473518372, 0, 0, 0.6724980473518372, 368.8201997033823, 132.56156533316033)"/><path d="M882.1,403.3H622.4c-1.7,0-3.1-1.4-3.1-3.1s1.4-3.1,3.1-3.1h259.7c1.7,0,3.1,1.4,3.1,3.1S883.8,403.3,882.1,403.3z" transform="matrix(0.6724980473518372, 0, 0, 0.6724980473518372, 368.8201997033823, 132.56156533316033)"/><path d="M816.8,461.3H622.4c-1.7,0-3.1-1.4-3.1-3.1s1.4-3.1,3.1-3.1h194.4c1.7,0,3.1,1.4,3.1,3.1S818.5,461.3,816.8,461.3z" transform="matrix(0.6724980473518372, 0, 0, 0.6724980473518372, 368.8201997033823, 132.56156533316033)"/><g transform="matrix(0.6724980473518372, 0, 0, 0.6724980473518372, 368.8201997033823, 133.6293906505431)">
				<path d="M 586.799988 175.899994 H 964.099976 V 244.899994 H 586.799988 V 175.899994 Z" fill="#35DEFF"/>
				<path fill="#231F20" d="M964.1,248.1H586.8c-1.7,0-3.1-1.4-3.1-3.1v-69c0-1.7,1.4-3.1,3.1-3.1h377.3c1.7,0,3.1,1.4,3.1,3.1v69&#10;&#9;&#9;&#9;&#9;&#9;C967.2,246.7,965.8,248.1,964.1,248.1z M589.9,241.8h371v-62.7h-371V241.8z"/>
			</g><path fill="#FFFFFF" d="M637,210.4c0,8.1-6.5,14.6-14.6,14.6c-8.1,0-14.6-6.5-14.6-14.6c0-8.1,6.6-14.6,14.6-14.6&#10;&#9;&#9;&#9;&#9;&#9;C630.5,195.8,637,202.4,637,210.4z" transform="matrix(0.6724980473518372, 0, 0, 0.6724980473518372, 368.8201997033823, 133.6293906505431)"/><path d="M622.4,228.2c-9.8,0-17.8-8-17.8-17.8c0-9.8,8-17.8,17.8-17.8c9.8,0,17.8,8,17.8,17.8&#10;&#9;&#9;&#9;&#9;&#9;C640.2,220.3,632.2,228.2,622.4,228.2z M622.4,199c-6.3,0-11.5,5.2-11.5,11.5s5.2,11.5,11.5,11.5c6.3,0,11.5-5.2,11.5-11.5&#10;&#9;&#9;&#9;&#9;&#9;S628.7,199,622.4,199z" transform="matrix(0.6724980473518372, 0, 0, 0.6724980473518372, 368.8201997033823, 133.6293906505431)"/><path fill="#FFFFFF" d="M684.7,210.4c0,8.1-6.5,14.6-14.6,14.6c-8.1,0-14.6-6.5-14.6-14.6c0-8.1,6.6-14.6,14.6-14.6&#10;&#9;&#9;&#9;&#9;&#9;C678.2,195.8,684.7,202.4,684.7,210.4z" transform="matrix(0.6724980473518372, 0, 0, 0.6724980473518372, 368.8201997033823, 133.6293906505431)"/><path d="M670.1,228.2c-9.8,0-17.8-8-17.8-17.8c0-9.8,8-17.8,17.8-17.8s17.8,8,17.8,17.8C687.9,220.3,679.9,228.2,670.1,228.2z&#10;&#9;&#9;&#9;&#9;&#9; M670.1,199c-6.3,0-11.5,5.2-11.5,11.5s5.2,11.5,11.5,11.5s11.5-5.2,11.5-11.5S676.4,199,670.1,199z" transform="matrix(0.6724980473518372, 0, 0, 0.6724980473518372, 368.8201997033823, 133.6293906505431)"/><path d="M 787.5 307 H 846 V 351.599998 H 787.5 V 307 Z" fill="#F1F2F2" transform="matrix(0.6724981665611267, 0, 0, 0.6724981665611267, 315.1218659631477, 132.50591652944934)"/><path d="M846.1,354.8h-58.5c-1.7,0-3.1-1.4-3.1-3.1V307c0-1.7,1.4-3.1,3.1-3.1h58.5c1.7,0,3.1,1.4,3.1,3.1v44.6&#10;&#9;&#9;&#9;&#9;&#9;C849.2,353.4,847.8,354.8,846.1,354.8z M790.7,348.5h52.2v-38.3h-52.2V348.5z" transform="matrix(0.6724981665611267, 0, 0, 0.6724981665611267, 314.0575349084604, 132.8202170665587)"/><path d="M 622.099976 307 H 680.599976 V 351.599998 H 622.099976 V 307 Z" fill="#FFFFFF" transform="matrix(0.7058197259902953, 0, 0, 0.7058197259902953, 291.45892603633763, 75.79807226684133)"/><path d="M680.6,354.8h-58.5c-1.7,0-3.1-1.4-3.1-3.1V307c0-1.7,1.4-3.1,3.1-3.1h58.5c1.7,0,3.1,1.4,3.1,3.1v44.6&#10;&#9;&#9;&#9;&#9;&#9;C683.8,353.4,682.3,354.8,680.6,354.8z M625.2,348.5h52.3v-38.3h-52.3V348.5z" transform="matrix(0.7058197259902953, 0, 0, 0.7058197259902953, 291.45892603633763, 75.79807226684133)"/><path d="M 704.799988 307 H 763.299988 V 351.599998 H 704.799988 V 307 Z" fill="#FFFFFF" transform="matrix(0.7058197259902953, 0, 0, 0.7058197259902953, 291.45892603633763, 75.79807226684133)"/><path d="M763.3,354.8h-58.5c-1.7,0-3.1-1.4-3.1-3.1V307c0-1.7,1.4-3.1,3.1-3.1h58.5c1.7,0,3.1,1.4,3.1,3.1v44.6&#10;&#9;&#9;&#9;&#9;&#9;C766.5,353.4,765.1,354.8,763.3,354.8z M707.9,348.5h52.2v-38.3h-52.2V348.5z" transform="matrix(0.7058197259902953, 0, 0, 0.7058197259902953, 291.45892603633763, 75.79807226684133)"/><g transform="matrix(0.7058197259902953, 0, 0, 0.7058197259902953, 291.799593760947, 75.79807989623586)">
			<path d="M 411.700012 406.700012 H 789 V 734.900024 H 411.700012 V 406.700012 Z" fill="#FFFFFF"/>
			<path d="M789,738H411.7c-1.7,0-3.1-1.4-3.1-3.1V406.7c0-1.7,1.4-3.1,3.1-3.1H789c1.7,0,3.1,1.4,3.1,3.1v328.2&#10;&#9;&#9;&#9;&#9;C792.1,736.6,790.7,738,789,738z M414.8,731.7h371V409.8h-371V731.7z"/>
		</g><path d="M 411.700012 342.899994 H 789 V 406.699993 H 411.700012 V 342.899994 Z" fill="#BCBEC0" transform="matrix(0.7058197259902953, 0, 0, 0.7058197259902953, 291.45892603633763, 75.79807226684133)"/><path d="M789,409.8H411.7c-1.7,0-3.1-1.4-3.1-3.1v-63.8c0-1.7,1.4-3.1,3.1-3.1H789c1.7,0,3.1,1.4,3.1,3.1v63.8&#10;&#9;&#9;&#9;&#9;C792.1,408.4,790.7,409.8,789,409.8z M414.8,403.5h371V346h-371V403.5z" transform="matrix(0.7058197259902953, 0, 0, 0.7058197259902953, 291.45892603633763, 75.79807226684133)"/><path d="M 411.700012 280.200012 H 789 V 342.900013 H 411.700012 V 280.200012 Z" fill="#FF926B" transform="matrix(0.7058197259902953, 0, 0, 0.7058197259902953, 291.45892603633763, 75.79807226684133)"/><path d="M789,346H411.7c-1.7,0-3.1-1.4-3.1-3.1v-62.7c0-1.7,1.4-3.1,3.1-3.1H789c1.7,0,3.1,1.4,3.1,3.1v62.7&#10;&#9;&#9;&#9;&#9;C792.1,344.6,790.7,346,789,346z M414.8,339.8h371v-56.4h-371V339.8z" transform="matrix(0.7058197259902953, 0, 0, 0.7058197259902953, 291.45892603633763, 75.79807226684133)"/><path d="M 432 296.100006 H 604.300003 V 326.900005 H 432 V 296.100006 Z" fill="#FFFFFF" transform="matrix(0.7058197259902953, 0, 0, 0.7058197259902953, 291.45892603633763, 75.79807226684133)"/><path d="M604.3,330.1H432c-1.7,0-3.1-1.4-3.1-3.1v-30.8c0-1.7,1.4-3.1,3.1-3.1h172.3c1.7,0,3.1,1.4,3.1,3.1V327&#10;&#9;&#9;&#9;C607.5,328.7,606.1,330.1,604.3,330.1z M435.1,323.8h166v-24.6h-166V323.8z" transform="matrix(0.7058197259902953, 0, 0, 0.7058197259902953, 291.45892603633763, 75.79807226684133)"/><path d="M630.9,330.1c-1.7,0-3.1-1.4-3.1-3.1v-30.8c0-1.7,1.4-3.1,3.1-3.1c1.7,0,3.1,1.4,3.1,3.1V327&#10;&#9;&#9;&#9;C634,328.7,632.6,330.1,630.9,330.1z" transform="matrix(0.7058197259902953, 0, 0, 0.7058197259902953, 291.45892603633763, 75.79807226684133)"/><path d="M655.5,330.1c-1.7,0-3.1-1.4-3.1-3.1v-30.8c0-1.7,1.4-3.1,3.1-3.1s3.1,1.4,3.1,3.1V327&#10;&#9;&#9;&#9;C658.6,328.7,657.2,330.1,655.5,330.1z" transform="matrix(0.7058197259902953, 0, 0, 0.7058197259902953, 291.45892603633763, 75.79807226684133)"/><path d="M737.1,705c-10.4,0-19-8.5-19-19c0-10.4,8.5-18.9,19-18.9c10.4,0,18.9,8.5,18.9,18.9C756.1,696.5,747.6,705,737.1,705z&#10;&#9;&#9;&#9; M737.1,673.4c-7,0-12.7,5.7-12.7,12.7c0,7,5.7,12.7,12.7,12.7c7,0,12.7-5.7,12.7-12.7C749.8,679.1,744.1,673.4,737.1,673.4z" transform="matrix(0.7058197259902953, 0, 0, 0.7058197259902953, 291.799593760947, 75.79807989623586)"/><path d="M682.4,705c-10.4,0-18.9-8.5-18.9-19c0-10.4,8.5-18.9,18.9-18.9c10.4,0,18.9,8.5,18.9,18.9&#10;&#9;&#9;&#9;C701.3,696.5,692.8,705,682.4,705z M682.4,673.4c-7,0-12.7,5.7-12.7,12.7c0,7,5.7,12.7,12.7,12.7c7,0,12.7-5.7,12.7-12.7&#10;&#9;&#9;&#9;C695,679.1,689.3,673.4,682.4,673.4z" transform="matrix(0.7058197259902953, 0, 0, 0.7058197259902953, 291.799593760947, 75.79807989623586)"/><path d="M 392.799988 525.099976 H 548.899994 V 681.199982 H 392.799988 V 525.099976 Z" fill="#FFE675" transform="matrix(0.7058197259902953, 0, 0, 0.7058197259902953, 415.614565684775, 25.060634064937034)"/><path fill="#231F20" d="M548.9,684.4H392.8c-1.7,0-3.1-1.4-3.1-3.1V525.1c0-1.7,1.4-3.1,3.1-3.1h156.1c1.7,0,3.1,1.4,3.1,3.1&#10;&#9;&#9;&#9;&#9;v156.1C552.1,683,550.7,684.4,548.9,684.4z M396,678.1h149.8V528.3H396V678.1z" transform="matrix(0.7058197259902953, 0, 0, 0.7058197259902953, 418.0829494738375, 24.71771566894094)"/><path d="M470.9,606.3c-13.5,0-24.5-11-24.5-24.5v-13.8c0-13.5,11-24.5,24.5-24.5c13.5,0,24.5,11,24.5,24.5v13.8&#10;&#9;&#9;&#9;&#9;C495.4,595.3,484.4,606.3,470.9,606.3z M470.9,549.9c-10,0-18.2,8.2-18.2,18.2v13.8c0,10,8.2,18.2,18.2,18.2&#10;&#9;&#9;&#9;&#9;c10,0,18.2-8.2,18.2-18.2v-13.8C489.1,558,480.9,549.9,470.9,549.9z" transform="matrix(0.7058197259902953, 0, 0, 0.7058197259902953, 420.00274927852524, 22.245280671382346)"/><path fill="#BCBEC0" d="M529.4,681.2v-32.4c0,0,2.1-28.6-23.3-32.1h-10.8l-24.4,20.9l-24.4-20.9h-10.8&#10;&#9;&#9;&#9;&#9;c-25.4,3.5-23.3,32.1-23.3,32.1v32.4" transform="matrix(0.7058197259902953, 0, 0, 0.7058197259902953, 419.24850733516564, 21.491443085933128)"/><path d="M529.4,684.4c-1.7,0-3.1-1.4-3.1-3.1v-32.4c0.1-1.3,1.5-25.9-20.6-28.9l-9.2,0l-23.5,20.1c-1.2,1-2.9,1-4.1,0l-23.5-20.1&#10;&#9;&#9;&#9;&#9;h-9.6c-21.8,3-20.3,27.6-20.2,28.7l0,32.6c0,1.7-1.4,3.1-3.1,3.1c-1.7,0-3.1-1.4-3.1-3.1v-32.4c-0.8-10.7,3.6-32.1,26.1-35.2&#10;&#9;&#9;&#9;&#9;l11.2,0c0.7,0,1.5,0.3,2,0.8l22.3,19.1l22.3-19.1c0.6-0.5,1.3-0.8,2-0.8h10.8c22.9,3.1,27.3,24.5,26.5,35.4l0,32.2&#10;&#9;&#9;&#9;&#9;C532.6,683,531.2,684.4,529.4,684.4z" transform="matrix(0.7058197259902953, 0, 0, 0.7058197259902953, 419.79712183711877, 19.434367585444818)"/><path d="M 621.199987 376 A 20.9 20.9 0 0 1 600.299988 396.9 A 20.9 20.9 0 0 1 579.399988 376 A 20.9 20.9 0 0 1 600.299988 355.1 A 20.9 20.9 0 0 1 621.199987 376 Z" fill="#35DEFF" transform="matrix(0.7058197259902953, 0, 0, 0.7058197259902953, 291.45892603633763, 75.79807226684133)"/><path d="M600.3,400c-13.3,0-24.1-10.8-24.1-24.1c0-13.3,10.8-24.1,24.1-24.1c13.3,0,24.1,10.8,24.1,24.1&#10;&#9;&#9;&#9;C624.4,389.2,613.6,400,600.3,400z M600.3,358.2c-9.8,0-17.8,8-17.8,17.8c0,9.8,8,17.8,17.8,17.8c9.8,0,17.8-8,17.8-17.8&#10;&#9;&#9;&#9;C618.1,366.2,610.1,358.2,600.3,358.2z" transform="matrix(0.7058197259902953, 0, 0, 0.7058197259902953, 291.45892603633763, 75.79807226684133)"/><path d="M429.4,772.9H313c-1.7,0-3.1-1.4-3.1-3.1s1.4-3.1,3.1-3.1h116.4c1.7,0,3.1,1.4,3.1,3.1S431.2,772.9,429.4,772.9z" transform="matrix(0.5370289683341979, 0, 0, 0.5370289683341979, 430.4783046984469, 34.404155183101096)"/><path d="M429.4,772.9H313c-1.7,0-3.1-1.4-3.1-3.1s1.4-3.1,3.1-3.1h116.4c1.7,0,3.1,1.4,3.1,3.1S431.2,772.9,429.4,772.9z" transform="matrix(0.5370289087295531, 0, 0, 0.5370289087295531, 449.197024180869, 66.32192938354055)"/><path d="M429.4,772.9H313c-1.7,0-3.1-1.4-3.1-3.1s1.4-3.1,3.1-3.1h116.4c1.7,0,3.1,1.4,3.1,3.1S431.2,772.9,429.4,772.9z" transform="matrix(0.5370289087295531, 0, 0, 0.5370289087295531, 429.31381495235314, 87.25162451293508)"/><path d="M511.7,816.8H313c-1.7,0-3.1-1.4-3.1-3.1s1.4-3.1,3.1-3.1h198.6c1.7,0,3.1,1.4,3.1,3.1S513.4,816.8,511.7,816.8z" transform="matrix(0.5370289087295531, 0, 0, 0.5370289087295531, 427.6312588000094, 96.6403726818804)"/><path d="M511.7,816.8H313c-1.7,0-3.1-1.4-3.1-3.1s1.4-3.1,3.1-3.1h198.6c1.7,0,3.1,1.4,3.1,3.1S513.4,816.8,511.7,816.8z" transform="matrix(0.5370289087295531, 0, 0, 0.5370289087295531, 468.98456080196274, 123.32573645141164)"/><path fill="#FFFFFF" d="M492.2,581.8c0,11.8-9.5,21.3-21.3,21.3l0,0c-11.8,0-21.3-9.6-21.3-21.3v-13.8c0-11.8,9.5-21.3,21.3-21.3&#10;&#9;&#9;&#9;&#9;l0,0c11.8,0,21.3,9.6,21.3,21.3V581.8z" transform="matrix(0.7120130062103271, 0, 0, 0.7120130062103271, 181.0090846125354, -3.2638421981416528)"/><g transform="matrix(0.7120128870010376, 0, 0, 0.7120128870010376, 179.4873560969105, -7.828951451071312)">
			<g>
				<path d="M 279.100006 421.299988 H 656.399994 V 490.299988 H 279.100006 V 421.299988 Z" fill="#A4D758"/>
				<path d="M656.4,493.4H279.1c-1.7,0-3.1-1.4-3.1-3.1v-69c0-1.7,1.4-3.1,3.1-3.1h377.3c1.7,0,3.1,1.4,3.1,3.1v69&#10;&#9;&#9;&#9;&#9;&#9;C659.5,492,658.1,493.4,656.4,493.4z M282.2,487.1h371v-62.7h-371V487.1z"/>
			</g>
			<g>
				<path d="M 279.100006 490.299988 H 656.399994 V 876 H 279.100006 V 490.299988 Z" fill="#FFFFFF"/>
				<path d="M656.4,879.1H279.1c-1.7,0-3.1-1.4-3.1-3.1V490.3c0-1.7,1.4-3.1,3.1-3.1h377.3c1.7,0,3.1,1.4,3.1,3.1V876&#10;&#9;&#9;&#9;&#9;&#9;C659.5,877.7,658.1,879.1,656.4,879.1z M282.2,872.9h371V493.4h-371V872.9z"/>
			</g>
		</g><path d="M621.2,772.9h-138c-1.7,0-3.1-1.4-3.1-3.1s1.4-3.1,3.1-3.1h138c1.7,0,3.1,1.4,3.1,3.1S623,772.9,621.2,772.9z" transform="matrix(0.7120130062103271, 0, 0, 0.7120130062103271, 181.0090846125354, -3.2638421981416528)"/><path d="M 500.100006 496.399994 H 700.5 V 540.499992 H 500.100006 V 496.399994 Z" fill="#FFE675" transform="matrix(0.6360782384872437, 0, 0, 0.6360782384872437, 169.30684462230113, 147.98064556430953)"/><path fill="#231F20" d="M700.5,543.6H500.1c-1.7,0-3.1-1.4-3.1-3.1v-44.1c0-1.7,1.4-3.1,3.1-3.1h200.4c1.7,0,3.1,1.4,3.1,3.1v44.1&#10;&#9;&#9;&#9;C703.7,542.2,702.3,543.6,700.5,543.6z M503.3,537.3h194.1v-37.8H503.3V537.3z" transform="matrix(0.642041563987732, 0, 0, 0.642041563987732, 166.4863795344105, 142.6064352066436)"/><path d="M621.2,731.8H313c-1.7,0-3.1-1.4-3.1-3.1s1.4-3.1,3.1-3.1h308.2c1.7,0,3.1,1.4,3.1,3.1S623,731.8,621.2,731.8z" transform="matrix(0.7120130062103271, 0, 0, 0.7120130062103271, 181.0090846125354, -3.2638421981416528)"/><path d="M429.4,772.9H313c-1.7,0-3.1-1.4-3.1-3.1s1.4-3.1,3.1-3.1h116.4c1.7,0,3.1,1.4,3.1,3.1S431.2,772.9,429.4,772.9z" transform="matrix(0.7120130062103271, 0, 0, 0.7120130062103271, 181.0090846125354, -3.2638421981416528)"/><path d="M511.7,816.8H313c-1.7,0-3.1-1.4-3.1-3.1s1.4-3.1,3.1-3.1h198.6c1.7,0,3.1,1.4,3.1,3.1S513.4,816.8,511.7,816.8z" transform="matrix(0.7120130062103271, 0, 0, 0.7120130062103271, 181.0090846125354, -3.2638421981416528)"/><path fill="#FFFFFF" d="M327.7,455.8c0,8.1-6.5,14.6-14.6,14.6c-8.1,0-14.6-6.5-14.6-14.6c0-8.1,6.6-14.6,14.6-14.6&#10;&#9;&#9;&#9;&#9;C321.1,441.2,327.7,447.7,327.7,455.8z" transform="matrix(0.7120130062103271, 0, 0, 0.7120130062103271, 181.0090846125354, -3.2638421981416528)"/><path d="M313,473.6c-9.8,0-17.8-8-17.8-17.8c0-9.8,8-17.8,17.8-17.8c9.8,0,17.8,8,17.8,17.8C330.8,465.6,322.8,473.6,313,473.6z&#10;&#9;&#9;&#9;&#9; M313,444.3c-6.3,0-11.5,5.2-11.5,11.5c0,6.3,5.2,11.5,11.5,11.5c6.3,0,11.5-5.2,11.5-11.5C324.5,449.5,319.4,444.3,313,444.3z" transform="matrix(0.7120130062103271, 0, 0, 0.7120130062103271, 181.0090846125354, -3.2638421981416528)"/><path fill="#FFFFFF" d="M375.4,455.8c0,8.1-6.5,14.6-14.6,14.6c-8.1,0-14.6-6.5-14.6-14.6c0-8.1,6.6-14.6,14.6-14.6&#10;&#9;&#9;&#9;&#9;C368.8,441.2,375.4,447.7,375.4,455.8z" transform="matrix(0.7120130062103271, 0, 0, 0.7120130062103271, 181.0090846125354, -3.2638421981416528)"/><path d="M360.7,473.6c-9.8,0-17.8-8-17.8-17.8c0-9.8,8-17.8,17.8-17.8c9.8,0,17.8,8,17.8,17.8&#10;&#9;&#9;&#9;&#9;C378.5,465.6,370.5,473.6,360.7,473.6z M360.7,444.3c-6.3,0-11.5,5.2-11.5,11.5c0,6.3,5.2,11.5,11.5,11.5&#10;&#9;&#9;&#9;&#9;c6.3,0,11.5-5.2,11.5-11.5C372.2,449.5,367.1,444.3,360.7,444.3z" transform="matrix(0.7120130062103271, 0, 0, 0.7120130062103271, 181.0090846125354, -3.2638421981416528)"/><path d="M 500.100006 496.399994 H 700.5 V 540.499992 H 500.100006 V 496.399994 Z" fill="#FFE675" transform="matrix(0.6360782384872437, 0, 0, 0.6360782384872437, 88.11510267894164, 62.73492946933885)"/><path fill="#231F20" d="M700.5,543.6H500.1c-1.7,0-3.1-1.4-3.1-3.1v-44.1c0-1.7,1.4-3.1,3.1-3.1h200.4c1.7,0,3.1,1.4,3.1,3.1v44.1&#10;&#9;&#9;&#9;C703.7,542.2,702.3,543.6,700.5,543.6z M503.3,537.3h194.1v-37.8H503.3V537.3z" transform="matrix(0.642041563987732, 0, 0, 0.642041563987732, 85.6768092219105, 59.64322796177049)"/><path d="M 500.100006 577.599976 H 700.5 V 621.699974 H 500.100006 V 577.599976 Z" fill="#FFE675" transform="matrix(0.7120128870010376, 0, 0, 0.7120128870010376, 85.13997450511363, 8.910085108987282)"/><path fill="#231F20" d="M700.5,624.8H500.1c-1.7,0-3.1-1.4-3.1-3.1v-44.1c0-1.7,1.4-3.1,3.1-3.1h200.4c1.7,0,3.1,1.4,3.1,3.1v44.1&#10;&#9;&#9;&#9;C703.7,623.4,702.3,624.8,700.5,624.8z M503.3,618.5h194.1v-37.8H503.3V618.5z" transform="matrix(0.7120128870010376, 0, 0, 0.7120128870010376, 84.37911024730101, 7.388364222756785)"/><path fill="#FFFFFF" d="M973.8,253.9c0,8.8,7.2,16,16,16c8.8,0,16-7.2,16-16c0-8.8-7.1-16-16-16&#10;&#9;&#9;&#9;C981,237.9,973.8,245.1,973.8,253.9z" transform="matrix(0.9999999999999999, 0, 0, 0.9999999999999999, -33.19576123903528, 334.4380286773851)"/><path fill="#FFFFFF" d="M973.8,253.9c0,8.8,7.2,16,16,16c8.8,0,16-7.2,16-16c0-8.8-7.1-16-16-16&#10;&#9;&#9;&#9;C981,237.9,973.8,245.1,973.8,253.9z" transform="matrix(0.9999999999999999, 0, 0, 0.9999999999999999, -100.62790914884707, -141.93625793720236)"/><path fill="#FFFFFF" d="M973.8,253.9c0,8.8,7.2,16,16,16c8.8,0,16-7.2,16-16c0-8.8-7.1-16-16-16&#10;&#9;&#9;&#9;C981,237.9,973.8,245.1,973.8,253.9z" transform="matrix(0.9999999999999999, 0, 0, 0.9999999999999999, -30.351658309613754, -144.2787948634719)"/><path fill="#FFFFFF" d="M973.8,253.9c0,8.8,7.2,16,16,16c8.8,0,16-7.2,16-16c0-8.8-7.1-16-16-16&#10;&#9;&#9;&#9;C981,237.9,973.8,245.1,973.8,253.9z" transform="matrix(0.9999999999999999, 0, 0, 0.9999999999999999, 37.58205178865285, -141.93625030780782)"/><path d="M989.8,272.4c-10.2,0-18.5-8.3-18.5-18.5s8.3-18.5,18.5-18.5c10.2,0,18.5,8.3,18.5,18.5S1000,272.4,989.8,272.4z&#10;&#9;&#9;&#9; M989.8,240.4c-7.4,0-13.5,6.1-13.5,13.5c0,7.4,6.1,13.5,13.5,13.5s13.5-6.1,13.5-13.5C1003.3,246.5,997.3,240.4,989.8,240.4z" transform="matrix(0.9999999999999999, 0, 0, 0.9999999999999999, 36.233212982500504, -141.90850219989767)"/><path d="M911.6,272.4c-10.2,0-18.5-8.3-18.5-18.5s8.3-18.5,18.5-18.5c10.2,0,18.5,8.3,18.5,18.5S921.8,272.4,911.6,272.4z&#10;&#9;&#9;&#9; M911.6,240.4c-7.4,0-13.5,6.1-13.5,13.5c0,7.4,6.1,13.5,13.5,13.5s13.5-6.1,13.5-13.5C925.1,246.5,919.1,240.4,911.6,240.4z" transform="matrix(0.9999999999999999, 0, 0, 0.9999999999999999, 45.87035134919972, -143.0797744777297)"/><path d="M833.5,272.4c-10.2,0-18.5-8.3-18.5-18.5s8.3-18.5,18.5-18.5c10.2,0,18.5,8.3,18.5,18.5S843.6,272.4,833.5,272.4z&#10;&#9;&#9;&#9; M833.5,240.4c-7.4,0-13.5,6.1-13.5,13.5c0,7.4,6.1,13.5,13.5,13.5c7.4,0,13.5-6.1,13.5-13.5C846.9,246.5,840.9,240.4,833.5,240.4&#10;&#9;&#9;&#9;z" transform="matrix(0.9999999999999999, 0, 0, 0.9999999999999999, 55.57639077791066, -143.41564331317895)"/></svg>